<svg version="1.1" xmlns="http://www.w3.org/2000/svg" viewBox="0 0 1940 1060" width="1940" height="1060">
  <!-- svg-source:excalidraw -->
  
  <defs>
    <style class="style-fonts">
      @font-face {
        font-family: "Virgil";
        src: url("https://excalidraw.com/Virgil.woff2");
      }
      @font-face {
        font-family: "Cascadia";
        src: url("https://excalidraw.com/Cascadia.woff2");
      }
      @font-face {
        font-family: "Assistant";
        src: url("https://excalidraw.com/Assistant-Regular.woff2");
      }
    </style>
    
  </defs>
  <rect x="0" y="0" width="1940" height="1060" fill="#ffffff"></rect><g stroke-linecap="round" transform="translate(10 10) rotate(0 960 520)"><path d="M0 0 L1920 0 L1920 1040 L0 1040" stroke="none" stroke-width="0" fill="#ffffff"></path><path d="M0 0 C570.1 0, 1140.2 0, 1920 0 M1920 0 C1920 407.25, 1920 814.49, 1920 1040 M1920 1040 C1340.08 1040, 760.16 1040, 0 1040 M0 1040 C0 755.65, 0 471.31, 0 0" stroke="#1e1e1e" stroke-width="2.5" fill="none" stroke-dasharray="1.5 8"></path></g><g stroke-linecap="round" transform="translate(1492.90591114965 387.5342559814453) rotate(0 170.08218383789062 276.1643981933594)"><path d="M0 0 L340.16 0 L340.16 552.33 L0 552.33" stroke="none" stroke-width="0" fill="#a5d8ff"></path><path d="M0 0 C85.38 0, 170.77 0, 340.16 0 M0 0 C118.05 0, 236.1 0, 340.16 0 M340.16 0 C340.16 187.38, 340.16 374.76, 340.16 552.33 M340.16 0 C340.16 177.73, 340.16 355.46, 340.16 552.33 M340.16 552.33 C258.68 552.33, 177.19 552.33, 0 552.33 M340.16 552.33 C220.39 552.33, 100.62 552.33, 0 552.33 M0 552.33 C0 335.52, 0 118.71, 0 0 M0 552.33 C0 383.02, 0 213.71, 0 0" stroke="#1e1e1e" stroke-width="2" fill="none"></path></g><g stroke-linecap="round" transform="translate(1517.6730620285562 455.9178009033203) rotate(0 147.72601318359375 207.7808380126953)"><path d="M0 0 L295.45 0 L295.45 415.56 L0 415.56" stroke="none" stroke-width="0" fill="#ffd8a8"></path><path d="M0 0 C64.87 0, 129.74 0, 295.45 0 M295.45 0 C295.45 110.82, 295.45 221.64, 295.45 415.56 M295.45 415.56 C203.55 415.56, 111.64 415.56, 0 415.56 M0 415.56 C0 267.04, 0 118.53, 0 0" stroke="#1e1e1e" stroke-width="2.5" fill="none" stroke-dasharray="8 10"></path></g><g stroke-linecap="round" transform="translate(90 670) rotate(0 120 74.07400924858007)"><path d="M0 0 L240 0 L240 148.15 L0 148.15" stroke="none" stroke-width="0" fill="#b2f2bb"></path><path d="M0 0 C91.94 0, 183.88 0, 240 0 M0 0 C52.15 0, 104.3 0, 240 0 M240 0 C240 50.37, 240 100.73, 240 148.15 M240 0 C240 52.13, 240 104.25, 240 148.15 M240 148.15 C158.73 148.15, 77.47 148.15, 0 148.15 M240 148.15 C173.25 148.15, 106.5 148.15, 0 148.15 M0 148.15 C0 91.13, 0 34.12, 0 0 M0 148.15 C0 95.46, 0 42.76, 0 0" stroke="#1e1e1e" stroke-width="2" fill="none"></path></g><g transform="translate(97.958984375 711.87400924858) rotate(0 112.041015625 32.200000000000045)"><text x="112.041015625" y="25.760546874999996" font-family="Helvetica, Segoe UI Emoji" font-size="28px" fill="#1e1e1e" text-anchor="middle" style="white-space: pre;" direction="ltr" dominant-baseline="alphabetic">Ksctl</text><text x="112.041015625" y="57.96054687499999" font-family="Helvetica, Segoe UI Emoji" font-size="28px" fill="#1e1e1e" text-anchor="middle" style="white-space: pre;" direction="ltr" dominant-baseline="alphabetic">cluster-Autoscaler</text></g><g mask="url(#mask-s_kw_gIBn8p-BvfO1WI8y)" stroke-linecap="round"><g transform="translate(549 710) rotate(0 -109.5 0)"><path d="M0 0 C-30.82 0, -61.63 0, -99 0 M0 0 C-25.45 0, -50.9 0, -99 0 M-99 0 C-142.59 0, -186.18 0, -219 0 M-99 0 C-131.56 0, -164.12 0, -219 0" stroke="#1e1e1e" stroke-width="2" fill="none"></path></g><g transform="translate(549 710) rotate(0 -109.5 0)"><path d="M-219 0 L-205.41 -6.34 L-205.41 6.34 L-219 0" stroke="none" stroke-width="0" fill="#1e1e1e" fill-rule="evenodd"></path><path d="M-219 0 C-214.77 -1.97, -210.54 -3.95, -205.41 -6.34 M-219 0 C-215.51 -1.63, -212.01 -3.26, -205.41 -6.34 M-205.41 -6.34 C-205.41 -1.73, -205.41 2.87, -205.41 6.34 M-205.41 -6.34 C-205.41 -2.9, -205.41 0.54, -205.41 6.34 M-205.41 6.34 C-209.75 4.31, -214.1 2.29, -219 0 M-205.41 6.34 C-208.71 4.8, -212.02 3.26, -219 0 M-219 0 C-219 0, -219 0, -219 0 M-219 0 C-219 0, -219 0, -219 0" stroke="#1e1e1e" stroke-width="2" fill="none"></path></g></g><mask id="mask-s_kw_gIBn8p-BvfO1WI8y"><rect x="0" y="0" fill="#fff" width="868" height="810"></rect><rect x="422.75390625" y="675.5" fill="#000" width="54.4921875" height="69" opacity="1"></rect></mask><g transform="translate(422.75390625 675.5) rotate(0 16.74609375 34.5)"><text x="27.24609375" y="18.400390625" font-family="Helvetica, Segoe UI Emoji" font-size="20px" fill="#1e1e1e" text-anchor="middle" style="white-space: pre;" direction="ltr" dominant-baseline="alphabetic">nodes</text><text x="27.24609375" y="41.400390625" font-family="Helvetica, Segoe UI Emoji" font-size="20px" fill="#1e1e1e" text-anchor="middle" style="white-space: pre;" direction="ltr" dominant-baseline="alphabetic">&amp;</text><text x="27.24609375" y="64.400390625" font-family="Helvetica, Segoe UI Emoji" font-size="20px" fill="#1e1e1e" text-anchor="middle" style="white-space: pre;" direction="ltr" dominant-baseline="alphabetic">pods</text></g><g mask="url(#mask-BBK06ggE95aw9ZvxMlSMv)" stroke-linecap="round"><g transform="translate(330 770) rotate(0 110 0)"><path d="M0 0 C55.59 0, 111.18 0, 220 0 M0 0 C71.41 0, 142.82 0, 220 0" stroke="#1e1e1e" stroke-width="2" fill="none"></path></g><g transform="translate(330 770) rotate(0 110 0)"><path d="M220 0 L206.41 6.34 L206.41 -6.34 L220 0" stroke="none" stroke-width="0" fill="#1e1e1e" fill-rule="evenodd"></path><path d="M220 0 C216.56 1.6, 213.13 3.2, 206.41 6.34 M220 0 C215.59 2.06, 211.17 4.12, 206.41 6.34 M206.41 6.34 C206.41 1.83, 206.41 -2.68, 206.41 -6.34 M206.41 6.34 C206.41 2.07, 206.41 -2.2, 206.41 -6.34 M206.41 -6.34 C210.05 -4.64, 213.69 -2.94, 220 0 M206.41 -6.34 C209.56 -4.87, 212.72 -3.39, 220 0 M220 0 C220 0, 220 0, 220 0 M220 0 C220 0, 220 0, 220 0" stroke="#1e1e1e" stroke-width="2" fill="none"></path></g></g><mask id="mask-BBK06ggE95aw9ZvxMlSMv"><rect x="0" y="0" fill="#fff" width="650" height="870"></rect><rect x="411.6552734375" y="747" fill="#000" width="56.689453125" height="46" opacity="1"></rect></mask><g transform="translate(411.6552734375 747) rotate(0 28.3447265625 23)"><text x="28.3447265625" y="18.400390625" font-family="Helvetica, Segoe UI Emoji" font-size="20px" fill="#1e1e1e" text-anchor="middle" style="white-space: pre;" direction="ltr" dominant-baseline="alphabetic">Scaler</text><text x="28.3447265625" y="41.400390625" font-family="Helvetica, Segoe UI Emoji" font-size="20px" fill="#1e1e1e" text-anchor="middle" style="white-space: pre;" direction="ltr" dominant-baseline="alphabetic">(crd)</text></g><g transform="translate(373.50406199488134 797.2191925048828) rotate(0 58.25390625 18.399999999999977)"><text x="0" y="14.720312499999999" font-family="Helvetica, Segoe UI Emoji" font-size="16px" fill="#2f9e44" text-anchor="start" style="white-space: pre;" direction="ltr" dominant-baseline="alphabetic">for pod pressure</text><text x="0" y="33.1203125" font-family="Helvetica, Segoe UI Emoji" font-size="16px" fill="#2f9e44" text-anchor="start" style="white-space: pre;" direction="ltr" dominant-baseline="alphabetic">per node</text></g><g stroke-linecap="round" transform="translate(986.3853423019937 490) rotate(0 133.69863891601562 218.79451751708984)"><path d="M0 0 L267.4 0 L267.4 437.59 L0 437.59" stroke="none" stroke-width="0" fill="#b2f2bb"></path><path d="M0 0 C72.18 0, 144.37 0, 267.4 0 M0 0 C103.75 0, 207.49 0, 267.4 0 M267.4 0 C267.4 119.47, 267.4 238.94, 267.4 437.59 M267.4 0 C267.4 154.98, 267.4 309.96, 267.4 437.59 M267.4 437.59 C199.15 437.59, 130.91 437.59, 0 437.59 M267.4 437.59 C186.85 437.59, 106.31 437.59, 0 437.59 M0 437.59 C0 286.93, 0 136.27, 0 0 M0 437.59 C0 298.95, 0 160.31, 0 0" stroke="#1e1e1e" stroke-width="2" fill="none"></path></g><g stroke-linecap="round" transform="translate(556.1387907883218 370) rotate(0 95.99998474121094 266.9589157104492)"><path d="M0 0 L192 0 L192 533.92 L0 533.92" stroke="none" stroke-width="0" fill="#ffec99"></path><path d="M0 0 C61.43 0, 122.86 0, 192 0 M0 0 C50.45 0, 100.89 0, 192 0 M192 0 C192 178.62, 192 357.24, 192 533.92 M192 0 C192 188.43, 192 376.86, 192 533.92 M192 533.92 C140.14 533.92, 88.28 533.92, 0 533.92 M192 533.92 C124.78 533.92, 57.56 533.92, 0 533.92 M0 533.92 C0 410.6, 0 287.28, 0 0 M0 533.92 C0 352.18, 0 170.44, 0 0" stroke="#1e1e1e" stroke-width="2" fill="none"></path></g><g transform="translate(589.8975645920327 604.7589157104492) rotate(0 62.2412109375 32.200000000000045)"><text x="62.2412109375" y="25.760546874999996" font-family="Helvetica, Segoe UI Emoji" font-size="28px" fill="#1e1e1e" text-anchor="middle" style="white-space: pre;" direction="ltr" dominant-baseline="alphabetic">controller-</text><text x="62.2412109375" y="57.96054687499999" font-family="Helvetica, Segoe UI Emoji" font-size="28px" fill="#1e1e1e" text-anchor="middle" style="white-space: pre;" direction="ltr" dominant-baseline="alphabetic">runtime</text></g><g mask="url(#mask-BM0oleGn_14k62dFmId_a)" stroke-linecap="round"><g transform="translate(750 630) rotate(0 115.6721328209187 0.6563752594000789)"><path d="M0 0 C56.15 0.32, 112.29 0.64, 231.34 1.31 M0 0 C56.12 0.32, 112.24 0.64, 231.34 1.31" stroke="#1e1e1e" stroke-width="2" fill="none"></path></g><g transform="translate(750 630) rotate(0 115.6721328209187 0.6563752594000789)"><path d="M231.34 1.31 L217.71 7.57 L217.79 -5.1 L231.34 1.31" stroke="none" stroke-width="0" fill="#1e1e1e" fill-rule="evenodd"></path><path d="M231.34 1.31 C228.04 2.83, 224.73 4.35, 217.71 7.57 M231.34 1.31 C228.04 2.83, 224.73 4.35, 217.71 7.57 M217.71 7.57 C217.74 3.04, 217.77 -1.49, 217.79 -5.1 M217.71 7.57 C217.73 5, 217.74 2.43, 217.79 -5.1 M217.79 -5.1 C222.31 -2.96, 226.84 -0.82, 231.34 1.31 M217.79 -5.1 C223.12 -2.58, 228.46 -0.05, 231.34 1.31 M231.34 1.31 C231.34 1.31, 231.34 1.31, 231.34 1.31 M231.34 1.31 C231.34 1.31, 231.34 1.31, 231.34 1.31" stroke="#1e1e1e" stroke-width="2" fill="none"></path></g></g><mask id="mask-BM0oleGn_14k62dFmId_a"><rect x="0" y="0" fill="#fff" width="1081.3442656418374" height="731.3127505188002"></rect><rect x="809.5490859459187" y="607.6563752594002" fill="#000" width="112.24609375" height="46" opacity="1"></rect></mask><g transform="translate(809.5490859459187 607.6563752594002) rotate(0 56.123046875 22.999999999999886)"><text x="56.123046875" y="18.400390625" font-family="Helvetica, Segoe UI Emoji" font-size="20px" fill="#1e1e1e" text-anchor="middle" style="white-space: pre;" direction="ltr" dominant-baseline="alphabetic">ksctl specific</text><text x="56.123046875" y="41.400390625" font-family="Helvetica, Segoe UI Emoji" font-size="20px" fill="#1e1e1e" text-anchor="middle" style="white-space: pre;" direction="ltr" dominant-baseline="alphabetic">crd(s)</text></g><g stroke-linecap="round" transform="translate(1000.1936003586343 590) rotate(0 120.54792785644531 160.4657211303711)"><path d="M0 0 L241.1 0 L241.1 320.93 L0 320.93" stroke="none" stroke-width="0" fill="#ffd8a8"></path><path d="M0 0 C77.67 0, 155.34 0, 241.1 0 M241.1 0 C241.1 103.3, 241.1 206.59, 241.1 320.93 M241.1 320.93 C174.51 320.93, 107.92 320.93, 0 320.93 M0 320.93 C0 222.35, 0 123.78, 0 0" stroke="#1e1e1e" stroke-width="2.5" fill="none" stroke-dasharray="8 10"></path></g><g transform="translate(1030 510) rotate(0 84.041015625 32.200000000000045)"><text x="84.041015625" y="25.760546874999996" font-family="Helvetica, Segoe UI Emoji" font-size="28px" fill="#1e1e1e" text-anchor="middle" style="white-space: pre;" direction="ltr" dominant-baseline="alphabetic">Ksctl</text><text x="84.041015625" y="57.96054687499999" font-family="Helvetica, Segoe UI Emoji" font-size="28px" fill="#1e1e1e" text-anchor="middle" style="white-space: pre;" direction="ltr" dominant-baseline="alphabetic">event-listener</text></g><g transform="translate(1070 610) rotate(0 46.1376953125 11.5)"><text x="46.1376953125" y="18.400390625" font-family="Helvetica, Segoe UI Emoji" font-size="20px" fill="#1e1e1e" text-anchor="middle" style="white-space: pre;" direction="ltr" dominant-baseline="alphabetic">dispatcher</text></g><g transform="translate(1597.6297194382241 399.19178771972656) rotate(0 69.26171875 16.100000000000023)"><text x="69.26171875" y="25.760546874999996" font-family="Helvetica, Segoe UI Emoji" font-size="28px" fill="#1e1e1e" text-anchor="middle" style="white-space: pre;" direction="ltr" dominant-baseline="alphabetic">Ksctl agent</text></g><g stroke-linecap="round" transform="translate(1549.3719450851968 513.2602691650391) rotate(0 120.54792785644531 30.246551513671875)"><path d="M0 0 L241.1 0 L241.1 60.49 L0 60.49" stroke="none" stroke-width="0" fill="#ffc9c9"></path><path d="M0 0 C65.81 0, 131.62 0, 241.1 0 M241.1 0 C241.1 12.49, 241.1 24.97, 241.1 60.49 M241.1 60.49 C164.01 60.49, 86.92 60.49, 0 60.49 M0 60.49 C0 46.05, 0 31.61, 0 0" stroke="#1e1e1e" stroke-width="2.5" fill="none" stroke-dasharray="1.5 8"></path></g><g transform="translate(1604.319287004142 532.0068206787109) rotate(0 65.6005859375 11.5)"><text x="65.6005859375" y="18.400390625" font-family="Helvetica, Segoe UI Emoji" font-size="20px" fill="#1e1e1e" text-anchor="middle" style="white-space: pre;" direction="ltr" dominant-baseline="alphabetic">Scale up/down</text></g><g stroke-linecap="round" transform="translate(1550 598.1480184971601) rotate(0 120.54792785644531 120)"><path d="M0 0 L241.1 0 L241.1 240 L0 240" stroke="none" stroke-width="0" fill="#ffc9c9"></path><path d="M0 0 C53.66 0, 107.33 0, 241.1 0 M241.1 0 C241.1 87.35, 241.1 174.69, 241.1 240 M241.1 240 C168 240, 94.9 240, 0 240 M0 240 C0 146.61, 0 53.22, 0 0" stroke="#1e1e1e" stroke-width="2.5" fill="none" stroke-dasharray="1.5 8"></path></g><g transform="translate(1598.2774200439453 706.6480184971601) rotate(0 72.2705078125 11.5)"><text x="72.2705078125" y="18.400390625" font-family="Helvetica, Segoe UI Emoji" font-size="20px" fill="#1e1e1e" text-anchor="middle" style="white-space: pre;" direction="ltr" dominant-baseline="alphabetic">other operations</text></g><g stroke-linecap="round" transform="translate(1045.6184660812905 775.7534637451172) rotate(0 74.08216857910156 16.5)"><path d="M0 0 L148.16 0 L148.16 33 L0 33" stroke="none" stroke-width="0" fill="#ffc9c9"></path><path d="M0 0 C38.05 0, 76.09 0, 148.16 0 M148.16 0 C148.16 12.31, 148.16 24.62, 148.16 33 M148.16 33 C95.67 33, 43.18 33, 0 33 M0 33 C0 20.53, 0 8.06, 0 0" stroke="#1e1e1e" stroke-width="2.5" fill="none" stroke-dasharray="1.5 8"></path></g><g transform="translate(1054.100048722892 780.7534637451172) rotate(0 65.6005859375 11.5)"><text x="65.6005859375" y="18.400390625" font-family="Helvetica, Segoe UI Emoji" font-size="20px" fill="#1e1e1e" text-anchor="middle" style="white-space: pre;" direction="ltr" dominant-baseline="alphabetic">Scale up/down</text></g><g stroke-linecap="round" transform="translate(1045.616455078125 834.6411825596601) rotate(0 74.08216857910156 16.5)"><path d="M0 0 L148.16 0 L148.16 33 L0 33" stroke="none" stroke-width="0" fill="#ffc9c9"></path><path d="M0 0 C54.7 0, 109.41 0, 148.16 0 M148.16 0 C148.16 10.16, 148.16 20.33, 148.16 33 M148.16 33 C91.08 33, 33.99 33, 0 33 M0 33 C0 22.65, 0 12.3, 0 0" stroke="#1e1e1e" stroke-width="2.5" fill="none" stroke-dasharray="1.5 8"></path></g><g transform="translate(1062.4476470947266 839.6411825596601) rotate(0 57.2509765625 11.5)"><text x="57.2509765625" y="18.400390625" font-family="Helvetica, Segoe UI Emoji" font-size="20px" fill="#1e1e1e" text-anchor="middle" style="white-space: pre;" direction="ltr" dominant-baseline="alphabetic">Other events</text></g><g transform="translate(1534.5103423019937 469.0684814453125) rotate(0 48.916015625 11.5)"><text x="48.916015625" y="18.400390625" font-family="Helvetica, Segoe UI Emoji" font-size="20px" fill="#1e1e1e" text-anchor="middle" style="white-space: pre;" direction="ltr" dominant-baseline="alphabetic">Operations</text></g><g mask="url(#mask-o088gpAiLLm4dJFYi4qhS)" stroke-linecap="round"><g transform="translate(1250 730) rotate(0 130.00000000000045 -0.3533904507111174)"><path d="M0 0 C80.94 -0.22, 161.87 -0.44, 260 -0.71 M0 0 C86.72 -0.24, 173.44 -0.47, 260 -0.71" stroke="#1e1e1e" stroke-width="2" fill="none"></path></g><g transform="translate(1250 730) rotate(0 130.00000000000045 -0.3533904507111174)"><path d="M260 -0.71 L246.42 5.67 L246.39 -7.01 L260 -0.71" stroke="none" stroke-width="0" fill="#1e1e1e" fill-rule="evenodd"></path><path d="M260 -0.71 C255.77 1.28, 251.55 3.26, 246.42 5.67 M260 -0.71 C255.47 1.42, 250.94 3.55, 246.42 5.67 M246.42 5.67 C246.42 3.1, 246.41 0.52, 246.39 -7.01 M246.42 5.67 C246.41 2.7, 246.41 -0.27, 246.39 -7.01 M246.39 -7.01 C249.46 -5.59, 252.54 -4.16, 260 -0.71 M246.39 -7.01 C250 -5.34, 253.61 -3.66, 260 -0.71 M260 -0.71 C260 -0.71, 260 -0.71, 260 -0.71 M260 -0.71 C260 -0.71, 260 -0.71, 260 -0.71" stroke="#1e1e1e" stroke-width="2" fill="none"></path></g></g><mask id="mask-o088gpAiLLm4dJFYi4qhS"><rect x="0" y="0" fill="#fff" width="1610.000000000001" height="830.7067809014222"></rect><rect x="1348.3251953125" y="718.1466095492888" fill="#000" width="63.349609375" height="23" opacity="1"></rect></mask><g transform="translate(1348.3251953125 718.1466095492888) rotate(0 31.674804687500455 11.500000000000114)"><text x="31.6748046875" y="18.400390625" font-family="Helvetica, Segoe UI Emoji" font-size="20px" fill="#1e1e1e" text-anchor="middle" style="white-space: pre;" direction="ltr" dominant-baseline="alphabetic">rpc call</text></g><g transform="translate(590 210) rotate(0 69.248046875 16.100000000000023)"><text x="69.248046875" y="25.760546874999996" font-family="Helvetica, Segoe UI Emoji" font-size="28px" fill="#1e1e1e" text-anchor="middle" style="white-space: pre;" direction="ltr" dominant-baseline="alphabetic">K8s cluster</text></g><g transform="translate(130 210) rotate(0 94.9443359375 16.100000000000023)"><text x="94.9443359375" y="25.760546874999996" font-family="Helvetica, Segoe UI Emoji" font-size="28px" fill="#1e1e1e" text-anchor="middle" style="white-space: pre;" direction="ltr" dominant-baseline="alphabetic">Event producer</text></g><g transform="translate(990 210) rotate(0 101.158203125 16.100000000000023)"><text x="101.158203125" y="25.760546874999996" font-family="Helvetica, Segoe UI Emoji" font-size="28px" fill="#1e1e1e" text-anchor="middle" style="white-space: pre;" direction="ltr" dominant-baseline="alphabetic">Event consumer</text></g><g stroke-linecap="round"><g transform="translate(510 270) rotate(0 0 370)"><path d="M0 0 C0 157.87, 0 315.73, 0 740" stroke="#1e1e1e" stroke-width="2.5" fill="none" stroke-dasharray="1.5 8"></path></g></g><mask></mask><g stroke-linecap="round"><g transform="translate(790 270) rotate(0 0 370)"><path d="M0 0 C0 216.3, 0 432.6, 0 740" stroke="#1e1e1e" stroke-width="2.5" fill="none" stroke-dasharray="1.5 8"></path></g></g><mask></mask><g stroke-linecap="round"><g transform="translate(1310 270) rotate(0 0 370)"><path d="M0 0 C0 244.81, 0 489.62, 0 740" stroke="#1e1e1e" stroke-width="2.5" fill="none" stroke-dasharray="1.5 8"></path></g></g><mask></mask><g transform="translate(1430 210) rotate(0 231.123046875 16.100000000000023)"><text x="231.123046875" y="25.760546874999996" font-family="Helvetica, Segoe UI Emoji" font-size="28px" fill="#1e1e1e" text-anchor="middle" style="white-space: pre;" direction="ltr" dominant-baseline="alphabetic">ksctl specific logic to attend the event</text></g><g transform="translate(670 50) rotate(0 234.1142578125 20.69999999999999)"><text x="234.1142578125" y="33.120703125" font-family="Helvetica, Segoe UI Emoji" font-size="36px" fill="#1e1e1e" text-anchor="middle" style="white-space: pre;" direction="ltr" dominant-baseline="alphabetic">Ksctl new event driven model</text></g></svg>