<svg version="1.1" xmlns="http://www.w3.org/2000/svg" viewBox="0 0 2715.281250000001 1934.3281250000005" width="2715.281250000001" height="1934.3281250000005">
  <!-- svg-source:excalidraw -->
  
  <defs>
    <style class="style-fonts">
      @font-face {
        font-family: "Virgil";
        src: url("https://excalidraw.com/Virgil.woff2");
      }
      @font-face {
        font-family: "Cascadia";
        src: url("https://excalidraw.com/Cascadia.woff2");
      }
      @font-face {
        font-family: "Assistant";
        src: url("https://excalidraw.com/Assistant-Regular.woff2");
      }
    </style>
    
  </defs>
  <rect x="0" y="0" width="2715.281250000001" height="1934.3281250000005" fill="#f5faff"></rect><g stroke-linecap="round" transform="translate(679.7470366379312 423.5282866379307) rotate(0 151.65625 77.669921875)"><path d="M32 0 C105.63 0.25, 185.44 -0.8, 271.31 0 C294.85 0.82, 301.7 9.74, 303.31 32 C307.94 62.97, 306.08 97.63, 303.31 123.34 C306.28 141.85, 294.15 156.69, 271.31 155.34 C215.1 158.33, 161.03 157.15, 32 155.34 C13.47 153.8, -0.29 146.53, 0 123.34 C1.66 98.96, -0.16 70.1, 0 32 C1.98 8.16, 12.5 -2.13, 32 0" stroke="none" stroke-width="0" fill="#e3fafc"></path><path d="M32 0 C114.99 3.23, 198.24 1.47, 271.31 0 M271.31 0 C293.25 -1.46, 301.64 11.9, 303.31 32 M303.31 32 C303.19 64.39, 303.53 94.86, 303.31 123.34 M303.31 123.34 C301.9 145.28, 292.84 156.52, 271.31 155.34 M271.31 155.34 C178.33 157.07, 83.37 155.64, 32 155.34 M32 155.34 C12.19 156.26, -1.92 146.16, 0 123.34 M0 123.34 C-1.25 103.71, -1.82 88.3, 0 32 M0 32 C0.97 11.13, 10.57 0.27, 32 0" stroke="#1e1e1e" stroke-width="2.5" fill="none" stroke-dasharray="1.5 8"></path></g><g stroke-linecap="round" transform="translate(1077.3134428879312 272.2293771327227) rotate(0 48.44140625 62.029296875)"><path d="M24.22 0 C37.39 1.9, 56.33 0.78, 72.66 0 C88.17 -1.58, 96.63 6.06, 96.88 24.22 C100.3 46.62, 96.87 64.7, 96.88 99.84 C98.46 112.58, 89.12 121.51, 72.66 124.06 C56.17 122.05, 37.71 122.71, 24.22 124.06 C4.66 121.66, -2.62 119.19, 0 99.84 C-1.52 71.36, 0.51 44.47, 0 24.22 C0.05 9.8, 6.24 1.15, 24.22 0" stroke="none" stroke-width="0" fill="#ffc9c9"></path><path d="M24.22 0 C35.88 -0.67, 45.9 -1.92, 72.66 0 M24.22 0 C35.59 0.11, 44.74 -0.26, 72.66 0 M72.66 0 C88.23 -1.91, 95.47 8.68, 96.88 24.22 M72.66 0 C89.04 1.36, 99.08 7.26, 96.88 24.22 M96.88 24.22 C99.19 51.63, 99.15 83.28, 96.88 99.84 M96.88 24.22 C98.09 39.93, 97.12 54.5, 96.88 99.84 M96.88 99.84 C95.65 117.96, 89.78 124.52, 72.66 124.06 M96.88 99.84 C96.77 116.29, 89.19 124.49, 72.66 124.06 M72.66 124.06 C59.26 123.68, 44.46 124.57, 24.22 124.06 M72.66 124.06 C61.05 123.78, 48.88 123.47, 24.22 124.06 M24.22 124.06 C8.93 122.24, 1.65 114.42, 0 99.84 M24.22 124.06 C9.04 124.92, -1.68 115.3, 0 99.84 M0 99.84 C-0.65 75.05, 2.04 48.58, 0 24.22 M0 99.84 C-1 77, -0.21 56.32, 0 24.22 M0 24.22 C-0.65 8.06, 9.17 -1.39, 24.22 0 M0 24.22 C1.17 6.71, 6.72 2.18, 24.22 0" stroke="#1e1e1e" stroke-width="2" fill="none"></path></g><g transform="translate(1087.4848906418374 296.7586740077227) rotate(0 38.26995849609375 37.5)"><text x="38.26995849609375" y="0" font-family="Virgil, Segoe UI Emoji" font-size="20px" fill="#1e1e1e" text-anchor="middle" style="white-space: pre;" direction="ltr" dominant-baseline="text-before-edge">newly </text><text x="38.26995849609375" y="25" font-family="Virgil, Segoe UI Emoji" font-size="20px" fill="#1e1e1e" text-anchor="middle" style="white-space: pre;" direction="ltr" dominant-baseline="text-before-edge">created</text><text x="38.26995849609375" y="50" font-family="Virgil, Segoe UI Emoji" font-size="20px" fill="#1e1e1e" text-anchor="middle" style="white-space: pre;" direction="ltr" dominant-baseline="text-before-edge">VM</text></g><g stroke-linecap="round" transform="translate(657.4696928879312 258.0028146327227) rotate(0 406.826171875 166.16796875)"><path d="M32 0 C248.27 2.69, 466.31 2.9, 781.65 0 M32 0 C285.01 -0.38, 537.97 0.12, 781.65 0 M781.65 0 C803.18 1.18, 815.56 9.96, 813.65 32 M781.65 0 C804.93 2.26, 813.72 12.47, 813.65 32 M813.65 32 C813.75 91.43, 813.73 149.52, 813.65 300.34 M813.65 32 C812.47 121.13, 813.34 208.88, 813.65 300.34 M813.65 300.34 C813.55 321.94, 803.32 332.71, 781.65 332.34 M813.65 300.34 C813.74 320.05, 803.28 333.84, 781.65 332.34 M781.65 332.34 C573.06 332.81, 365.8 333.62, 32 332.34 M781.65 332.34 C605.53 329.07, 429.41 329.12, 32 332.34 M32 332.34 C11.5 333.08, -1.46 321.07, 0 300.34 M32 332.34 C11.43 330.87, 1.38 320.36, 0 300.34 M0 300.34 C-1.77 215.13, -1.78 127.33, 0 32 M0 300.34 C-0.64 240.54, 0.05 180.21, 0 32 M0 32 C1.02 9.48, 9.49 1.9, 32 0 M0 32 C0.91 8.89, 8.37 -2.1, 32 0" stroke="#1971c2" stroke-width="2" fill="none"></path></g><g transform="translate(1490.7587553879312 540.1668771327227) rotate(0 34.38398742675781 17.5)"><text x="0" y="0" font-family="Virgil, Segoe UI Emoji" font-size="28px" fill="#f08c00" text-anchor="start" style="white-space: pre;" direction="ltr" dominant-baseline="text-before-edge">cloud</text></g><g transform="translate(1398.8134428879312 276.1043771327227) rotate(0 25.129989624023438 17.5)"><text x="0" y="0" font-family="Virgil, Segoe UI Emoji" font-size="28px" fill="#1971c2" text-anchor="start" style="white-space: pre;" direction="ltr" dominant-baseline="text-before-edge">k8s</text></g><g transform="translate(1607.1220366379312 306.2254708827227) rotate(0 51.849952697753906 12.5)"><text x="0" y="0" font-family="Virgil, Segoe UI Emoji" font-size="20px" fill="#1e1e1e" text-anchor="start" style="white-space: pre;" direction="ltr" dominant-baseline="text-before-edge">* nodePool</text></g><g stroke-linecap="round" transform="translate(1225.3290678879312 358.3602365077227) rotate(0 100.23046875 89.267578125)"><path d="M32 0 C74.55 -2.36, 112.77 -0.72, 168.46 0 C186.39 0.31, 197.91 11.98, 200.46 32 C197.84 68.94, 198.5 107.18, 200.46 146.54 C198.06 165.25, 193 181.67, 168.46 178.54 C136.58 176.62, 106.29 176.99, 32 178.54 C12.39 176.7, 1.15 168.61, 0 146.54 C0.56 117.08, 3.25 83.86, 0 32 C2.29 14.23, 7.71 -1.45, 32 0" stroke="none" stroke-width="0" fill="#b2f2bb"></path><path d="M32 0 C64.73 -1.01, 101.87 0.6, 168.46 0 M32 0 C81.85 1.47, 130.04 1.27, 168.46 0 M168.46 0 C188.14 1.52, 201.39 8.74, 200.46 32 M168.46 0 C191.51 -2.24, 201.93 11.34, 200.46 32 M200.46 32 C201.8 63.54, 200.29 93.05, 200.46 146.54 M200.46 32 C200.69 67.19, 200.78 104.44, 200.46 146.54 M200.46 146.54 C200.02 169.09, 190.25 177.64, 168.46 178.54 M200.46 146.54 C199.87 169.64, 191.52 177.04, 168.46 178.54 M168.46 178.54 C112.83 180.76, 59.26 179.95, 32 178.54 M168.46 178.54 C122.75 177.49, 76.98 177.56, 32 178.54 M32 178.54 C11.08 180.09, -0.86 167.71, 0 146.54 M32 178.54 C11.86 178.33, -1.41 166.09, 0 146.54 M0 146.54 C-0.72 111.21, -2.1 74.7, 0 32 M0 146.54 C1.07 118.19, -0.33 90.48, 0 32 M0 32 C0.57 10.22, 10.62 -0.35, 32 0 M0 32 C-1.01 10.5, 9.38 -0.42, 32 0" stroke="#1e1e1e" stroke-width="2" fill="none"></path></g><g transform="translate(1308.5695540329507 435.1278146327227) rotate(0 16.98998260498047 12.5)"><text x="16.98998260498047" y="0" font-family="Virgil, Segoe UI Emoji" font-size="20px" fill="#1e1e1e" text-anchor="middle" style="white-space: pre;" direction="ltr" dominant-baseline="text-before-edge">vms</text></g><g stroke-linecap="round" transform="translate(1235.3290678879312 368.3602365077227) rotate(0 100.23046875 89.267578125)"><path d="M32 0 C69.29 -0.76, 110.85 0.24, 168.46 0 C191.35 -1.85, 200.26 9.1, 200.46 32 C197.54 56.24, 203.15 88.85, 200.46 146.54 C198.28 168.76, 187.45 179.32, 168.46 178.54 C130.45 176.74, 90.13 179.31, 32 178.54 C9.21 175.55, 1.08 166.72, 0 146.54 C1.41 114.86, -3.84 74.61, 0 32 C-1.05 10.55, 9.86 -2.97, 32 0" stroke="none" stroke-width="0" fill="#b2f2bb"></path><path d="M32 0 C64.48 1.77, 93.89 1.55, 168.46 0 M32 0 C85.52 -0.31, 141.17 -2.03, 168.46 0 M168.46 0 C191.29 -1.95, 201.74 11.25, 200.46 32 M168.46 0 C189.03 -1.28, 199.04 12.94, 200.46 32 M200.46 32 C201 72.23, 201.1 111.87, 200.46 146.54 M200.46 32 C200.39 58.93, 200.83 84.19, 200.46 146.54 M200.46 146.54 C199.95 169.41, 191.29 177.24, 168.46 178.54 M200.46 146.54 C202.63 165.64, 190.77 176.45, 168.46 178.54 M168.46 178.54 C117.02 177.64, 63.49 179.77, 32 178.54 M168.46 178.54 C136.46 178.54, 103.61 177.68, 32 178.54 M32 178.54 C11.7 178.36, -1.23 166.32, 0 146.54 M32 178.54 C11.08 179.95, -0.75 167.85, 0 146.54 M0 146.54 C-0.39 104.71, 2.69 66.03, 0 32 M0 146.54 C1.43 120.79, 1.12 95.32, 0 32 M0 32 C-0.88 10.52, 9.55 -0.36, 32 0 M0 32 C0.09 8.68, 12.82 0.69, 32 0" stroke="#1e1e1e" stroke-width="2" fill="none"></path></g><g transform="translate(1318.5695540329507 445.1278146327227) rotate(0 16.98998260498047 12.5)"><text x="16.98998260498047" y="0" font-family="Virgil, Segoe UI Emoji" font-size="20px" fill="#1e1e1e" text-anchor="middle" style="white-space: pre;" direction="ltr" dominant-baseline="text-before-edge">vms</text></g><g stroke-linecap="round" transform="translate(1245.3290678879312 378.3602365077227) rotate(0 100.23046875 89.267578125)"><path d="M32 0 C75.67 -2.75, 116.04 -2.46, 168.46 0 C187.44 -0.9, 197.05 8.27, 200.46 32 C200.11 58.91, 199.95 84.82, 200.46 146.54 C200.14 171.02, 189.85 180.26, 168.46 178.54 C133.01 176.05, 101.56 177.89, 32 178.54 C10.94 180.08, -3.21 170.16, 0 146.54 C0.64 100.72, 0.89 52.17, 0 32 C-0.12 7.8, 7.1 -0.64, 32 0" stroke="none" stroke-width="0" fill="#b2f2bb"></path><path d="M32 0 C87.92 -1.09, 141.48 -2.81, 168.46 0 M32 0 C84.07 0.34, 135.29 1.6, 168.46 0 M168.46 0 C189.13 -1.12, 199.23 12.64, 200.46 32 M168.46 0 C190.91 0.53, 200.35 10.97, 200.46 32 M200.46 32 C199.27 68.5, 201.99 104.05, 200.46 146.54 M200.46 32 C200.46 74.15, 201.47 114.1, 200.46 146.54 M200.46 146.54 C202.35 165.93, 190.65 176.72, 168.46 178.54 M200.46 146.54 C202.36 166.06, 190.76 179.39, 168.46 178.54 M168.46 178.54 C136.23 180.19, 105.41 179.4, 32 178.54 M168.46 178.54 C117.43 178.34, 64.75 177.65, 32 178.54 M32 178.54 C11.03 179.77, -0.65 167.85, 0 146.54 M32 178.54 C11.93 176.93, 1.17 166.51, 0 146.54 M0 146.54 C-2.63 116.9, -2.91 91.83, 0 32 M0 146.54 C-0.41 114.68, -0.53 82.79, 0 32 M0 32 C0.08 8.94, 12.54 0.6, 32 0 M0 32 C-0.04 9.29, 11.67 -2.18, 32 0" stroke="#1e1e1e" stroke-width="2" fill="none"></path></g><g transform="translate(1328.5695540329507 455.1278146327227) rotate(0 16.98998260498047 12.5)"><text x="16.98998260498047" y="0" font-family="Virgil, Segoe UI Emoji" font-size="20px" fill="#1e1e1e" text-anchor="middle" style="white-space: pre;" direction="ltr" dominant-baseline="text-before-edge">vms</text></g><g transform="translate(1621.3485991379312 406.9403146327227) rotate(0 19.66999053955078 12.5)"><text x="0" y="0" font-family="Virgil, Segoe UI Emoji" font-size="20px" fill="#1e1e1e" text-anchor="start" style="white-space: pre;" direction="ltr" dominant-baseline="text-before-edge">AMI</text></g><g transform="translate(1843.3485991379312 290.9403146327227) rotate(0 84.34993743896484 12.5)"><text x="0" y="0" font-family="Virgil, Segoe UI Emoji" font-size="20px" fill="#1e1e1e" text-anchor="start" style="white-space: pre;" direction="ltr" dominant-baseline="text-before-edge">snaphort and ami</text></g><g transform="translate(1930.3485991379312 385.7098458827227) rotate(0 33.04997253417969 12.5)"><text x="0" y="0" font-family="Virgil, Segoe UI Emoji" font-size="20px" fill="#1e1e1e" text-anchor="start" style="white-space: pre;" direction="ltr" dominant-baseline="text-before-edge">Tqgs -</text></g><g transform="translate(2016.0634428879312 389.0457833827227) rotate(0 38.03997802734375 12.5)"><text x="0" y="0" font-family="Virgil, Segoe UI Emoji" font-size="20px" fill="#1e1e1e" text-anchor="start" style="white-space: pre;" direction="ltr" dominant-baseline="text-before-edge">UUID-4</text></g><g transform="translate(1868.7157866379312 952.5184396327227) rotate(0 126.69988250732422 12.5)"><text x="0" y="0" font-family="Virgil, Segoe UI Emoji" font-size="20px" fill="#1e1e1e" text-anchor="start" style="white-space: pre;" direction="ltr" dominant-baseline="text-before-edge">virtual nodepool use tags</text></g><g stroke-linecap="round" transform="translate(1040.6571928879312 461.1278146327227) rotate(0 72.68359375 58.234375)"><path d="M29.12 0 C50.76 0.7, 73.98 1.07, 116.25 0 C137.39 -1.83, 146.51 10.44, 145.37 29.12 C143.35 44.51, 146.04 56.15, 145.37 87.35 C147.66 110.33, 132.71 115.02, 116.25 116.47 C89.68 116, 66.18 112.56, 29.12 116.47 C9.07 119.78, -1.95 107.15, 0 87.35 C2.09 65.96, -3.66 54.61, 0 29.12 C3.55 10.99, 8.25 1.14, 29.12 0" stroke="none" stroke-width="0" fill="#b2f2bb"></path><path d="M29.12 0 C54.36 1.5, 76.1 0.44, 116.25 0 M29.12 0 C56.46 -0.87, 83.86 0.49, 116.25 0 M116.25 0 C135.22 1.22, 145.82 8.81, 145.37 29.12 M116.25 0 C135.07 1.78, 147.09 8.21, 145.37 29.12 M145.37 29.12 C142.99 53.73, 143.23 75.89, 145.37 87.35 M145.37 29.12 C145.27 48.12, 145.54 67.84, 145.37 87.35 M145.37 87.35 C145.78 108.32, 134.81 116.31, 116.25 116.47 M145.37 87.35 C146.56 106.56, 134.25 114.69, 116.25 116.47 M116.25 116.47 C88.52 117.28, 59.43 117.2, 29.12 116.47 M116.25 116.47 C95.67 116.52, 73.3 116.38, 29.12 116.47 M29.12 116.47 C10.28 116.02, -0.05 106.41, 0 87.35 M29.12 116.47 C8.69 116.31, -1.29 106.35, 0 87.35 M0 87.35 C1.1 69.62, -0.7 52.84, 0 29.12 M0 87.35 C0.31 75.82, -0.57 63.38, 0 29.12 M0 29.12 C-0.87 8.4, 9.21 -1.9, 29.12 0 M0 29.12 C-1.53 8.03, 11.75 2, 29.12 0" stroke="#1e1e1e" stroke-width="2" fill="none"></path></g><g transform="translate(1067.5908324142983 494.3621896327227) rotate(0 45.74995422363281 25)"><text x="45.74995422363281" y="0" font-family="Virgil, Segoe UI Emoji" font-size="20px" fill="#1e1e1e" text-anchor="middle" style="white-space: pre;" direction="ltr" dominant-baseline="text-before-edge">scaling</text><text x="45.74995422363281" y="25" font-family="Virgil, Segoe UI Emoji" font-size="20px" fill="#1e1e1e" text-anchor="middle" style="white-space: pre;" direction="ltr" dominant-baseline="text-before-edge">controller</text></g><g stroke-linecap="round" transform="translate(712.1532866379312 279.7762521327227) rotate(0 81.41015625 47.294921875)"><path d="M23.65 0 C59.01 -1.86, 92.07 0.71, 139.17 0 C153.48 -2.99, 163.9 6.73, 162.82 23.65 C165.48 41.76, 160.23 51.3, 162.82 70.94 C161.77 86.59, 154.14 91.62, 139.17 94.59 C104.27 95.84, 68.68 92.91, 23.65 94.59 C8.15 96.44, 0.16 89.34, 0 70.94 C4.29 62.62, -0.71 52.87, 0 23.65 C-2.11 8.88, 4.88 -1.98, 23.65 0" stroke="none" stroke-width="0" fill="#ffec99"></path><path d="M23.65 0 C64.16 0.39, 104.51 0.13, 139.17 0 M23.65 0 C49.97 -0.15, 76.97 -1.21, 139.17 0 M139.17 0 C154.43 1.54, 164.32 6.59, 162.82 23.65 M139.17 0 C157.11 -2.22, 163.8 5.79, 162.82 23.65 M162.82 23.65 C163.2 40.27, 161.85 60.48, 162.82 70.94 M162.82 23.65 C163.31 35.59, 162.68 45.89, 162.82 70.94 M162.82 70.94 C163.85 86.53, 153.71 93.05, 139.17 94.59 M162.82 70.94 C163.24 88.13, 154.19 94.57, 139.17 94.59 M139.17 94.59 C96.99 94, 59.06 95.97, 23.65 94.59 M139.17 94.59 C113.72 93.31, 87.66 93.36, 23.65 94.59 M23.65 94.59 C7 94.45, -1.12 86.35, 0 70.94 M23.65 94.59 C7.97 92.6, 2.15 87.4, 0 70.94 M0 70.94 C-1.61 57.01, -1.13 43.46, 0 23.65 M0 70.94 C-0.19 54.06, -0.01 37.54, 0 23.65 M0 23.65 C-1.33 6.43, 9.66 1.74, 23.65 0 M0 23.65 C-1.39 8.45, 6.39 0.5, 23.65 0" stroke="#1e1e1e" stroke-width="2" fill="none"></path></g><g transform="translate(737.4935042282632 314.5711740077227) rotate(0 56.06993865966797 12.5)"><text x="56.06993865966797" y="0" font-family="Virgil, Segoe UI Emoji" font-size="20px" fill="#1e1e1e" text-anchor="middle" style="white-space: pre;" direction="ltr" dominant-baseline="text-before-edge">ksctl agent</text></g><g stroke-linecap="round"><g transform="translate(1179.6610991379312 357.3897054960712) rotate(0 18.15625 14.489828815210558)"><path d="M0.04 -0.84 C6.09 4.08, 30.47 24.67, 36.47 29.77 M-1.39 1.33 C4.49 5.9, 29.51 23.65, 35.6 28.06" stroke="#1e1e1e" stroke-width="2" fill="none"></path></g><g transform="translate(1179.6610991379312 357.3897054960712) rotate(0 18.15625 14.489828815210558)"><path d="M13.23 21.8 C18.92 24.03, 28.71 25.31, 35.6 28.06 M13.23 21.8 C21.07 24.93, 30.15 25.77, 35.6 28.06" stroke="#1e1e1e" stroke-width="2" fill="none"></path></g><g transform="translate(1179.6610991379312 357.3897054960712) rotate(0 18.15625 14.489828815210558)"><path d="M22.48 8.89 C25.27 15.2, 32.13 20.57, 35.6 28.06 M22.48 8.89 C27.01 16.64, 32.75 22.15, 35.6 28.06" stroke="#1e1e1e" stroke-width="2" fill="none"></path></g></g><mask></mask><g stroke-linecap="round" transform="translate(170.82906788793116 673.0731271327227) rotate(0 258.7421875 142.181640625)"><path d="M32 0 C177.86 2.68, 322.81 3.97, 485.48 0 C503.61 2.29, 521.05 7.71, 517.48 32 C515.79 86.66, 516.38 143.98, 517.48 252.36 C513.92 273.06, 510.13 282.41, 485.48 284.36 C344.69 287.62, 202.08 284.87, 32 284.36 C13.73 287.92, 1.29 272.24, 0 252.36 C-0.58 177.57, 5.1 104.9, 0 32 C-1.66 10.03, 7.53 -1.38, 32 0" stroke="none" stroke-width="0" fill="#a5d8ff"></path><path d="M32 0 C170.35 -0.49, 308.03 -0.06, 485.48 0 M32 0 C148.1 -1.98, 263.94 -2.13, 485.48 0 M485.48 0 C507.67 -1.82, 519.13 9.1, 517.48 32 M485.48 0 C507.78 0.86, 515.8 9.98, 517.48 32 M517.48 32 C515.28 105.79, 517.61 178.13, 517.48 252.36 M517.48 32 C517.94 95.64, 518.63 161.16, 517.48 252.36 M517.48 252.36 C516.83 273.68, 507.92 282.97, 485.48 284.36 M517.48 252.36 C518.66 272.33, 505.47 286.54, 485.48 284.36 M485.48 284.36 C330.54 282.47, 177.13 282.17, 32 284.36 M485.48 284.36 C357.16 284.12, 229.4 283.8, 32 284.36 M32 284.36 C12.54 284.96, -0.04 272.5, 0 252.36 M32 284.36 C11.67 282.19, 0.2 272.07, 0 252.36 M0 252.36 C-0.92 177.48, -1.96 103.66, 0 32 M0 252.36 C2.04 207.9, 0.75 162.15, 0 32 M0 32 C-1.3 11.1, 10.49 1.75, 32 0 M0 32 C0.03 11.77, 9.5 0.73, 32 0" stroke="#1e1e1e" stroke-width="2" fill="none"></path></g><g transform="translate(354.62132710423975 790.2547677577227) rotate(0 74.9499282836914 25)"><text x="74.9499282836914" y="0" font-family="Virgil, Segoe UI Emoji" font-size="20px" fill="#1e1e1e" text-anchor="middle" style="white-space: pre;" direction="ltr" dominant-baseline="text-before-edge">ksctl mgt</text><text x="74.9499282836914" y="25" font-family="Virgil, Segoe UI Emoji" font-size="20px" fill="#1e1e1e" text-anchor="middle" style="white-space: pre;" direction="ltr" dominant-baseline="text-before-edge">can be CLI, UI</text></g><g stroke-linecap="round"><g transform="translate(501.05575998054337 667.9793771327227) rotate(0 88.4198570786939 -74.84348203523336)"><path d="M0.27 -0.54 C4.35 -22.21, -5.37 -104.33, 24.2 -129.32 C53.78 -154.31, 152.11 -146.88, 177.74 -150.47 M-1.04 1.8 C2.87 -20.27, -6.65 -105.73, 23.09 -130.96 C52.84 -156.18, 152.1 -146.32, 177.45 -149.56" stroke="#1e1e1e" stroke-width="2" fill="none"></path></g><g transform="translate(501.05575998054337 667.9793771327227) rotate(0 88.4198570786939 -74.84348203523336)"><path d="M154.11 -140.6 C159.64 -143.65, 168.56 -144.13, 177.45 -149.56 M154.11 -140.6 C159.94 -143.39, 165.82 -145.37, 177.45 -149.56" stroke="#1e1e1e" stroke-width="2" fill="none"></path></g><g transform="translate(501.05575998054337 667.9793771327227) rotate(0 88.4198570786939 -74.84348203523336)"><path d="M153.81 -157.7 C159.53 -156, 168.53 -151.73, 177.45 -149.56 M153.81 -157.7 C159.87 -156.46, 165.83 -154.42, 177.45 -149.56" stroke="#1e1e1e" stroke-width="2" fill="none"></path></g></g><mask></mask><g stroke-linecap="round" transform="translate(688.0946928879312 462.3817208827227) rotate(0 62.298828125 44.263671875)"><path d="M22.13 0 C53.24 -3.87, 75.77 -1.97, 102.47 0 C117.11 -0.8, 121.63 7.26, 124.6 22.13 C127.12 29.94, 124.19 41.92, 124.6 66.4 C126.44 81.31, 119.85 85.04, 102.47 88.53 C86.63 88.5, 69.36 87.84, 22.13 88.53 C8.38 85.53, -1.98 84.71, 0 66.4 C-2.77 53.59, 3.41 41.98, 0 22.13 C-1.14 8.45, 6.15 -2.28, 22.13 0" stroke="none" stroke-width="0" fill="#a5d8ff"></path><path d="M22.13 0 C49.6 1.71, 72.68 2.09, 102.47 0 M22.13 0 C39.29 -0.06, 55.21 1.1, 102.47 0 M102.47 0 C115.76 -0.6, 125.26 6.1, 124.6 22.13 M102.47 0 C118.6 -1.31, 125.07 9.17, 124.6 22.13 M124.6 22.13 C124.39 32.29, 123.02 45.26, 124.6 66.4 M124.6 22.13 C125 37.45, 124.96 53.56, 124.6 66.4 M124.6 66.4 C123.42 83.05, 118.02 86.98, 102.47 88.53 M124.6 66.4 C122.3 79.05, 117.88 88.01, 102.47 88.53 M102.47 88.53 C78.43 87.05, 54.31 88.25, 22.13 88.53 M102.47 88.53 C85.3 88.17, 68.6 87.82, 22.13 88.53 M22.13 88.53 C7.55 87.11, 0.73 82.01, 0 66.4 M22.13 88.53 C6.19 88.4, -1 79.64, 0 66.4 M0 66.4 C-1.04 56, 2.16 40.84, 0 22.13 M0 66.4 C0.2 52.89, 0.3 38.12, 0 22.13 M0 22.13 C-1.02 8.01, 7.79 -0.81, 22.13 0 M0 22.13 C-1.91 8.07, 6.64 0.18, 22.13 0" stroke="#1e1e1e" stroke-width="2" fill="none"></path></g><g transform="translate(718.3135496994546 494.1453927577227) rotate(0 32.07997131347656 12.5)"><text x="32.07997131347656" y="0" font-family="Virgil, Segoe UI Emoji" font-size="20px" fill="#1e1e1e" text-anchor="middle" style="white-space: pre;" direction="ltr" dominant-baseline="text-before-edge">CM_(i)</text></g><g stroke-linecap="round" transform="translate(833.4228178879312 443.2137521327227) rotate(0 62.298828125 44.263671875)"><path d="M22.13 0 C39.53 -0.38, 54.19 0.3, 102.47 0 C114.36 -3.56, 123.96 10.69, 124.6 22.13 C126.53 33.17, 127.31 40.4, 124.6 66.4 C121.47 84.21, 120.77 89.81, 102.47 88.53 C82.6 84.68, 58.77 91.24, 22.13 88.53 C5.87 86.87, -0.64 78.01, 0 66.4 C-1.82 55.89, -1.9 40.96, 0 22.13 C3.4 7.74, 10.93 1.77, 22.13 0" stroke="none" stroke-width="0" fill="#a5d8ff"></path><path d="M22.13 0 C50.32 0.09, 80.57 0.89, 102.47 0 M22.13 0 C39.19 -0.6, 58.05 -0.94, 102.47 0 M102.47 0 C118.42 -1.14, 125.01 8.93, 124.6 22.13 M102.47 0 C116.24 -0.19, 125.79 7.18, 124.6 22.13 M124.6 22.13 C125.49 32.05, 124.24 44.36, 124.6 66.4 M124.6 22.13 C124.24 33.28, 125.22 41.75, 124.6 66.4 M124.6 66.4 C122.6 79.33, 117.79 88.08, 102.47 88.53 M124.6 66.4 C124.54 80.74, 116.21 88.36, 102.47 88.53 M102.47 88.53 C81.14 90.43, 63.87 88.52, 22.13 88.53 M102.47 88.53 C83.28 87.06, 64.28 88.2, 22.13 88.53 M22.13 88.53 C6.35 88.42, -0.87 79.84, 0 66.4 M22.13 88.53 C6.8 86.35, -1.53 79.47, 0 66.4 M0 66.4 C0.11 47.88, 0.05 31.79, 0 22.13 M0 66.4 C-0.52 49.56, 0.2 31.68, 0 22.13 M0 22.13 C-1.66 7.98, 6.74 0.15, 22.13 0 M0 22.13 C0.99 5.33, 8.84 2.28, 22.13 0" stroke="#1e1e1e" stroke-width="2" fill="none"></path></g><g transform="translate(861.4516798874429 474.9774240077227) rotate(0 34.26996612548828 12.5)"><text x="34.26996612548828" y="0" font-family="Virgil, Segoe UI Emoji" font-size="20px" fill="#1e1e1e" text-anchor="middle" style="white-space: pre;" direction="ltr" dominant-baseline="text-before-edge">CM_(ii)</text></g><g stroke-linecap="round"><g transform="translate(1034.8368803879312 532.6736800417934) rotate(0 -34.0078125 -14.059654405455149)"><path d="M0.99 -0.94 C-10.35 -5.37, -55.87 -23.08, -67.51 -27.67 M0.05 1.18 C-11.45 -3.52, -57.11 -24.8, -68.2 -29.56" stroke="#1e1e1e" stroke-width="2" fill="none"></path></g><g transform="translate(1034.8368803879312 532.6736800417934) rotate(0 -34.0078125 -14.059654405455149)"><path d="M-43.26 -27.72 C-53.36 -27.31, -59.58 -30.24, -68.2 -29.56 M-43.26 -27.72 C-49.4 -28.95, -56.53 -28.1, -68.2 -29.56" stroke="#1e1e1e" stroke-width="2" fill="none"></path></g><g transform="translate(1034.8368803879312 532.6736800417934) rotate(0 -34.0078125 -14.059654405455149)"><path d="M-50.28 -12.13 C-57.83 -17.11, -61.65 -25.39, -68.2 -29.56 M-50.28 -12.13 C-54.57 -17.52, -59.81 -20.88, -68.2 -29.56" stroke="#1e1e1e" stroke-width="2" fill="none"></path></g></g><mask></mask><g transform="translate(768.2275053879312 622.6200021327227) rotate(0 450.7496643066406 62.5)"><text x="0" y="0" font-family="Virgil, Segoe UI Emoji" font-size="20px" fill="#1e1e1e" text-anchor="start" style="white-space: pre;" direction="ltr" dominant-baseline="text-before-edge">CRD instead of CM for agent to look and see if any pending status has occured</text><text x="0" y="25" font-family="Virgil, Segoe UI Emoji" font-size="20px" fill="#1e1e1e" text-anchor="start" style="white-space: pre;" direction="ltr" dominant-baseline="text-before-edge">custom kind will also avoid scanning entire confimap events in the cluster</text><text x="0" y="50" font-family="Virgil, Segoe UI Emoji" font-size="20px" fill="#1e1e1e" text-anchor="start" style="white-space: pre;" direction="ltr" dominant-baseline="text-before-edge"></text><text x="0" y="75" font-family="Virgil, Segoe UI Emoji" font-size="20px" fill="#1e1e1e" text-anchor="start" style="white-space: pre;" direction="ltr" dominant-baseline="text-before-edge">also in future we might limit the resolved ones by deleting or keeping. a certain no of them</text><text x="0" y="100" font-family="Virgil, Segoe UI Emoji" font-size="20px" fill="#1e1e1e" text-anchor="start" style="white-space: pre;" direction="ltr" dominant-baseline="text-before-edge">(ITS IMPLEMENTATION DETAIL so it can change)</text></g><g transform="translate(807.1845366379312 183.88172088272268) rotate(0 638.3094482421875 25)"><text x="0" y="0" font-family="Virgil, Segoe UI Emoji" font-size="20px" fill="#1e1e1e" text-anchor="start" style="white-space: pre;" direction="ltr" dominant-baseline="text-before-edge">store state.json to the configmap</text><text x="0" y="25" font-family="Virgil, Segoe UI Emoji" font-size="20px" fill="#1e1e1e" text-anchor="start" style="white-space: pre;" direction="ltr" dominant-baseline="text-before-edge">and other metadata like clustername, region inside a sepeerate configmap and cloud tokens in secret better be a sealed secret</text></g><g transform="translate(681.6728178879312 1447.1239083827227) rotate(0 431.9197082519531 25)"><text x="0" y="0" font-family="Virgil, Segoe UI Emoji" font-size="20px" fill="#1e1e1e" text-anchor="start" style="white-space: pre;" direction="ltr" dominant-baseline="text-before-edge">mgt can tell the ksctl agent by creating a configmap to write its latest state into it</text><text x="0" y="25" font-family="Virgil, Segoe UI Emoji" font-size="20px" fill="#1e1e1e" text-anchor="start" style="white-space: pre;" direction="ltr" dominant-baseline="text-before-edge">once written and mgt will continuously pool for latest if found it will update its state</text></g><g transform="translate(929.6845366379312 1541.2489083827227) rotate(0 238.62982177734375 25)"><text x="0" y="0" font-family="Virgil, Segoe UI Emoji" font-size="20px" fill="#1e1e1e" text-anchor="start" style="white-space: pre;" direction="ltr" dominant-baseline="text-before-edge">tell ksctl agent to scale down worker node -&gt; 0</text><text x="0" y="25" font-family="Virgil, Segoe UI Emoji" font-size="20px" fill="#1e1e1e" text-anchor="start" style="white-space: pre;" direction="ltr" dominant-baseline="text-before-edge">and then once done tell the mgt to destory</text></g><g transform="translate(1108.9032866379312 1508.7293771327227) rotate(0 14.039993286132812 12.5)"><text x="0" y="0" font-family="Virgil, Segoe UI Emoji" font-size="20px" fill="#1e1e1e" text-anchor="start" style="white-space: pre;" direction="ltr" dominant-baseline="text-before-edge">OR</text></g><g transform="translate(1007.3485991379312 773.9403146327227) rotate(0 91.84992980957031 12.5)"><text x="0" y="0" font-family="Virgil, Segoe UI Emoji" font-size="20px" fill="#1e1e1e" text-anchor="start" style="white-space: pre;" direction="ltr" dominant-baseline="text-before-edge">events and agents</text></g><g transform="translate(1009.3564116379312 816.6512521327227) rotate(0 88.36991119384766 12.5)"><text x="0" y="0" font-family="Virgil, Segoe UI Emoji" font-size="20px" fill="#1e1e1e" text-anchor="start" style="white-space: pre;" direction="ltr" dominant-baseline="text-before-edge">producer consumer</text></g><g transform="translate(1773.4735991379312 750.8485991379307) rotate(0 412.17962646484375 75)"><text x="0" y="0" font-family="Virgil, Segoe UI Emoji" font-size="20px" fill="#1e1e1e" text-anchor="start" style="white-space: pre;" direction="ltr" dominant-baseline="text-before-edge">If we are going to try using nodePool</text><text x="0" y="25" font-family="Virgil, Segoe UI Emoji" font-size="20px" fill="#1e1e1e" text-anchor="start" style="white-space: pre;" direction="ltr" dominant-baseline="text-before-edge">1. cloud provider supports</text><text x="0" y="50" font-family="Virgil, Segoe UI Emoji" font-size="20px" fill="#1e1e1e" text-anchor="start" style="white-space: pre;" direction="ltr" dominant-baseline="text-before-edge">    then use that also attach a tag or label to distringush between them</text><text x="0" y="75" font-family="Virgil, Segoe UI Emoji" font-size="20px" fill="#1e1e1e" text-anchor="start" style="white-space: pre;" direction="ltr" dominant-baseline="text-before-edge">2. if doesn't we can create a tag or label which is unique to that specific cluster</text><text x="0" y="100" font-family="Virgil, Segoe UI Emoji" font-size="20px" fill="#1e1e1e" text-anchor="start" style="white-space: pre;" direction="ltr" dominant-baseline="text-before-edge">    (may be UUID version 4 can do) or SHA-1</text><text x="0" y="125" font-family="Virgil, Segoe UI Emoji" font-size="20px" fill="#1e1e1e" text-anchor="start" style="white-space: pre;" direction="ltr" dominant-baseline="text-before-edge">    so then use the virtual nodePool which we had it </text></g><g transform="translate(1774.6884428879312 605.2626616379307) rotate(0 317.9597473144531 50)"><text x="0" y="0" font-family="Virgil, Segoe UI Emoji" font-size="20px" fill="#1e1e1e" text-anchor="start" style="white-space: pre;" direction="ltr" dominant-baseline="text-before-edge">Also another way to automate things</text><text x="0" y="25" font-family="Virgil, Segoe UI Emoji" font-size="20px" fill="#1e1e1e" text-anchor="start" style="white-space: pre;" direction="ltr" dominant-baseline="text-before-edge">* try to make the AMI or a snapshort of the first workerplane</text><text x="0" y="50" font-family="Virgil, Segoe UI Emoji" font-size="20px" fill="#1e1e1e" text-anchor="start" style="white-space: pre;" direction="ltr" dominant-baseline="text-before-edge">    by that we can spawn up as many instances as needed</text><text x="0" y="75" font-family="Virgil, Segoe UI Emoji" font-size="20px" fill="#1e1e1e" text-anchor="start" style="white-space: pre;" direction="ltr" dominant-baseline="text-before-edge">    BEWARE: the token expires in case of kubeadm and k3s</text></g><g transform="translate(597.3993803879312 1031.3837553879307) rotate(0 824.5293579101562 200)"><text x="0" y="0" font-family="Virgil, Segoe UI Emoji" font-size="20px" fill="#1e1e1e" text-anchor="start" style="white-space: pre;" direction="ltr" dominant-baseline="text-before-edge">Finally discussion and conclusion</text><text x="0" y="25" font-family="Virgil, Segoe UI Emoji" font-size="20px" fill="#1e1e1e" text-anchor="start" style="white-space: pre;" direction="ltr" dominant-baseline="text-before-edge">1.  auto-scaler</text><text x="0" y="50" font-family="Virgil, Segoe UI Emoji" font-size="20px" fill="#1e1e1e" text-anchor="start" style="white-space: pre;" direction="ltr" dominant-baseline="text-before-edge">    we will create a controller which willl detect any node pressure or Pod pressure if its due to any resources</text><text x="0" y="75" font-family="Virgil, Segoe UI Emoji" font-size="20px" fill="#1e1e1e" text-anchor="start" style="white-space: pre;" direction="ltr" dominant-baseline="text-before-edge">    then create a trigger scale up</text><text x="0" y="100" font-family="Virgil, Segoe UI Emoji" font-size="20px" fill="#1e1e1e" text-anchor="start" style="white-space: pre;" direction="ltr" dominant-baseline="text-before-edge">    we can create a crd which works just like the configmap which just stores data aka event</text><text x="0" y="125" font-family="Virgil, Segoe UI Emoji" font-size="20px" fill="#1e1e1e" text-anchor="start" style="white-space: pre;" direction="ltr" dominant-baseline="text-before-edge">    for example</text><text x="0" y="150" font-family="Virgil, Segoe UI Emoji" font-size="20px" fill="#1e1e1e" text-anchor="start" style="white-space: pre;" direction="ltr" dominant-baseline="text-before-edge">    i. if we have to scale up the cluster a new kind XyZ is created a resource which will have a status field to say if the event is has been resolved or unresolved</text><text x="0" y="175" font-family="Virgil, Segoe UI Emoji" font-size="20px" fill="#1e1e1e" text-anchor="start" style="white-space: pre;" direction="ltr" dominant-baseline="text-before-edge">        so if the event is not resolved it will be consumed</text><text x="0" y="200" font-family="Virgil, Segoe UI Emoji" font-size="20px" fill="#1e1e1e" text-anchor="start" style="white-space: pre;" direction="ltr" dominant-baseline="text-before-edge">    ii. producer can be the custom controller for the scaling up and scaling down</text><text x="0" y="225" font-family="Virgil, Segoe UI Emoji" font-size="20px" fill="#1e1e1e" text-anchor="start" style="white-space: pre;" direction="ltr" dominant-baseline="text-before-edge">    iii. consumer is the ksctl agent wihich will be getting any changes or creation of XyZ type of resource</text><text x="0" y="250" font-family="Virgil, Segoe UI Emoji" font-size="20px" fill="#1e1e1e" text-anchor="start" style="white-space: pre;" direction="ltr" dominant-baseline="text-before-edge">        if it finds one unresolved it works on that</text><text x="0" y="275" font-family="Virgil, Segoe UI Emoji" font-size="20px" fill="#1e1e1e" text-anchor="start" style="white-space: pre;" direction="ltr" dominant-baseline="text-before-edge">    iv. once got what to do ksctl agent will create a new VM and bootstrap the k8s distro</text><text x="0" y="300" font-family="Virgil, Segoe UI Emoji" font-size="20px" fill="#1e1e1e" text-anchor="start" style="white-space: pre;" direction="ltr" dominant-baseline="text-before-edge"></text><text x="0" y="325" font-family="Virgil, Segoe UI Emoji" font-size="20px" fill="#1e1e1e" text-anchor="start" style="white-space: pre;" direction="ltr" dominant-baseline="text-before-edge">2. we need to develop the agent and event driven architecture first before moveing forward for any higher level features</text><text x="0" y="350" font-family="Virgil, Segoe UI Emoji" font-size="20px" fill="#1e1e1e" text-anchor="start" style="white-space: pre;" direction="ltr" dominant-baseline="text-before-edge">    as it will help use to easily tell the ksctl agent what needs to be done in the cluster</text><text x="0" y="375" font-family="Virgil, Segoe UI Emoji" font-size="20px" fill="#1e1e1e" text-anchor="start" style="white-space: pre;" direction="ltr" dominant-baseline="text-before-edge">3. another thing we got was about 2 statefile so there are 2 ways to look at that</text></g><g transform="translate(940.9345366379312 935.9853178879307) rotate(0 268.759765625 12.5)"><text x="0" y="0" font-family="Virgil, Segoe UI Emoji" font-size="20px" fill="#1e1e1e" text-anchor="start" style="white-space: pre;" direction="ltr" dominant-baseline="text-before-edge">will use k8s event driven artecture to our advantage</text></g><g transform="translate(610.3485991379312 1622.6142241379307) rotate(0 595.9796142578125 87.5)"><text x="0" y="0" font-family="Virgil, Segoe UI Emoji" font-size="20px" fill="#1e1e1e" text-anchor="start" style="white-space: pre;" direction="ltr" dominant-baseline="text-before-edge">4. anything we want the agent to do we can create a crd (need to limit the number of them to minimal)</text><text x="0" y="25" font-family="Virgil, Segoe UI Emoji" font-size="20px" fill="#1e1e1e" text-anchor="start" style="white-space: pre;" direction="ltr" dominant-baseline="text-before-edge">    for example:</text><text x="0" y="50" font-family="Virgil, Segoe UI Emoji" font-size="20px" fill="#1e1e1e" text-anchor="start" style="white-space: pre;" direction="ltr" dominant-baseline="text-before-edge">    if we decided to use point 3 i) do refer this</text><text x="0" y="75" font-family="Virgil, Segoe UI Emoji" font-size="20px" fill="#1e1e1e" text-anchor="start" style="white-space: pre;" direction="ltr" dominant-baseline="text-before-edge">5. if we are going to build the custom controller we can didn't need to create the nodepool support</text><text x="0" y="100" font-family="Virgil, Segoe UI Emoji" font-size="20px" fill="#1e1e1e" text-anchor="start" style="white-space: pre;" direction="ltr" dominant-baseline="text-before-edge">    we can relly on the labels/tag in cloud to help us with that</text><text x="0" y="125" font-family="Virgil, Segoe UI Emoji" font-size="20px" fill="#1e1e1e" text-anchor="start" style="white-space: pre;" direction="ltr" dominant-baseline="text-before-edge">6. also try to make the scripts non blocking and only make it a blocking when we are recieving data from the remote VM</text><text x="0" y="150" font-family="Virgil, Segoe UI Emoji" font-size="20px" fill="#1e1e1e" text-anchor="start" style="white-space: pre;" direction="ltr" dominant-baseline="text-before-edge">    for running true background task we might use `&amp; disown` refer: https://github.com/kubesimplify/ksctl/issues/288</text></g><g stroke-linecap="round"><g transform="translate(804.7782866379312 375.4579741379307) rotate(0 -1.76171875 22.326171875)"><path d="M-0.32 0.52 C-0.92 7.95, -2.68 36.96, -3.3 44.23 M0.51 0.31 C-0.16 7.82, -3.03 37.35, -3.62 44.71" stroke="#1e1e1e" stroke-width="2" fill="none"></path></g><g transform="translate(804.7782866379312 375.4579741379307) rotate(0 -1.76171875 22.326171875)"><path d="M-9.37 23.06 C-6.47 31.07, -6.17 37.27, -3.62 44.71 M-9.37 23.06 C-8.15 27.5, -7.16 32.07, -3.62 44.71" stroke="#1e1e1e" stroke-width="2" fill="none"></path></g><g transform="translate(804.7782866379312 375.4579741379307) rotate(0 -1.76171875 22.326171875)"><path d="M5.89 24.44 C3.44 31.92, -1.62 37.64, -3.62 44.71 M5.89 24.44 C3.92 28.57, 1.73 32.85, -3.62 44.71" stroke="#1e1e1e" stroke-width="2" fill="none"></path></g></g><mask></mask><g transform="translate(1016.5829741379316 37.69234913793082) rotate(0 228.02395629882812 22.499999999999943)"><text x="0" y="0" font-family="Virgil, Segoe UI Emoji" font-size="36px" fill="#1971c2" text-anchor="start" style="white-space: pre;" direction="ltr" dominant-baseline="text-before-edge">DISSCUSSION ON KSCTL</text></g><g stroke-linecap="round" transform="translate(10 10) rotate(0 1347.6406250000005 957.1640625000002)"><path d="M32 0 C925.23 10.75, 1819.75 10.5, 2663.28 0 M2663.28 0 C2684.26 -0.88, 2695.14 9.55, 2695.28 32 M2695.28 32 C2696.32 553.91, 2695.55 1074.85, 2695.28 1882.33 M2695.28 1882.33 C2696.16 1901.77, 2684.79 1912.91, 2663.28 1914.33 M2663.28 1914.33 C1778 1908.56, 892.28 1908.71, 32 1914.33 M32 1914.33 C8.77 1912.99, -1.46 1905.44, 0 1882.33 M0 1882.33 C3.97 1166.46, 4.42 450.94, 0 32 M0 32 C0.03 11.62, 9.65 0.64, 32 0" stroke="#1971c2" stroke-width="2.5" fill="none" stroke-dasharray="1.5 8"></path></g></svg>