<svg version="1.1" xmlns="http://www.w3.org/2000/svg" viewBox="0 0 2160 1280" width="2160" height="1280">
  <!-- svg-source:excalidraw -->
  
  <defs>
    <style class="style-fonts">
      @font-face {
        font-family: "Virgil";
        src: url("https://excalidraw.com/Virgil.woff2");
      }
      @font-face {
        font-family: "Cascadia";
        src: url("https://excalidraw.com/Cascadia.woff2");
      }
      @font-face {
        font-family: "Assistant";
        src: url("https://excalidraw.com/Assistant-Regular.woff2");
      }
    </style>
    
  </defs>
  <rect x="0" y="0" width="2160" height="1280" fill="#ffffff"></rect><g stroke-linecap="round" transform="translate(10 10) rotate(0 1070 630)"><path d="M32 0 C774.66 0, 1517.32 0, 2108 0 C2129.33 0, 2140 10.67, 2140 32 C2140 428.88, 2140 825.76, 2140 1228 C2140 1249.33, 2129.33 1260, 2108 1260 C1561.82 1260, 1015.64 1260, 32 1260 C10.67 1260, 0 1249.33, 0 1228 C0 788.66, 0 349.31, 0 32 C0 10.67, 10.67 0, 32 0" stroke="none" stroke-width="0" fill="#ffffff"></path><path d="M32 0 C717.12 0, 1402.24 0, 2108 0 M32 0 C621.42 0, 1210.83 0, 2108 0 M2108 0 C2129.33 0, 2140 10.67, 2140 32 M2108 0 C2129.33 0, 2140 10.67, 2140 32 M2140 32 C2140 379.14, 2140 726.29, 2140 1228 M2140 32 C2140 306.3, 2140 580.61, 2140 1228 M2140 1228 C2140 1249.33, 2129.33 1260, 2108 1260 M2140 1228 C2140 1249.33, 2129.33 1260, 2108 1260 M2108 1260 C1610.74 1260, 1113.48 1260, 32 1260 M2108 1260 C1459.7 1260, 811.41 1260, 32 1260 M32 1260 C10.67 1260, 0 1249.33, 0 1228 M32 1260 C10.67 1260, 0 1249.33, 0 1228 M0 1228 C0 958.95, 0 689.89, 0 32 M0 1228 C0 846.26, 0 464.51, 0 32 M0 32 C0 10.67, 10.67 0, 32 0 M0 32 C0 10.67, 10.67 0, 32 0" stroke="#1971c2" stroke-width="4" fill="none"></path></g><g stroke-linecap="round" transform="translate(630 1090) rotate(0 380 60)"><path d="M0 0 L760 0 L760 120 L0 120" stroke="none" stroke-width="0" fill="#fff9db"></path><path d="M0 0 C292.89 0, 585.79 0, 760 0 M0 0 C209.74 0, 419.49 0, 760 0 M760 0 C760 28.66, 760 57.31, 760 120 M760 0 C760 33.11, 760 66.22, 760 120 M760 120 C549.82 120, 339.64 120, 0 120 M760 120 C460.53 120, 161.05 120, 0 120 M0 120 C0 81.45, 0 42.9, 0 0 M0 120 C0 94.97, 0 69.94, 0 0" stroke="#e03131" stroke-width="4" fill="none"></path></g><g stroke-linecap="round" transform="translate(70 390) rotate(0 210 270)"><path d="M0 0 L420 0 L420 540 L0 540" stroke="none" stroke-width="0" fill="#ebfbee"></path><path d="M0 0 C144.39 0, 288.78 0, 420 0 M420 0 C420 211.32, 420 422.65, 420 540 M420 540 C327.35 540, 234.69 540, 0 540 M0 540 C0 380.73, 0 221.46, 0 0" stroke="#1e1e1e" stroke-width="2.5" fill="none" stroke-dasharray="8 10"></path></g><g stroke-linecap="round" transform="translate(1710 330) rotate(0 170.08218383789062 250)"><path d="M0 0 L340.16 0 L340.16 500 L0 500" stroke="none" stroke-width="0" fill="#e7f5ff"></path><path d="M0 0 C69.33 0, 138.65 0, 340.16 0 M0 0 C115.4 0, 230.8 0, 340.16 0 M340.16 0 C340.16 121.14, 340.16 242.28, 340.16 500 M340.16 0 C340.16 158.59, 340.16 317.18, 340.16 500 M340.16 500 C220.94 500, 101.71 500, 0 500 M340.16 500 C241.92 500, 143.67 500, 0 500 M0 500 C0 391.22, 0 282.43, 0 0 M0 500 C0 311.61, 0 123.23, 0 0" stroke="#1e1e1e" stroke-width="2" fill="none"></path></g><g stroke-linecap="round" transform="translate(1650 870) rotate(0 220 70)"><path d="M0 0 L440 0 L440 140 L0 140" stroke="none" stroke-width="0" fill="#e7f5ff"></path><path d="M0 0 C98.07 0, 196.13 0, 440 0 M0 0 C92.09 0, 184.17 0, 440 0 M440 0 C440 32.85, 440 65.7, 440 140 M440 0 C440 34.89, 440 69.77, 440 140 M440 140 C283.11 140, 126.21 140, 0 140 M440 140 C331.99 140, 223.97 140, 0 140 M0 140 C0 108.98, 0 77.97, 0 0 M0 140 C0 101.21, 0 62.43, 0 0" stroke="#1e1e1e" stroke-width="2" fill="none"></path></g><g stroke-linecap="round" transform="translate(1737.6730620285562 355.9178009033203) rotate(0 147.72601318359375 207.7808380126953)"><path d="M0 0 L295.45 0 L295.45 415.56 L0 415.56" stroke="none" stroke-width="0" fill="#ffd8a8"></path><path d="M0 0 C116.92 0, 233.84 0, 295.45 0 M295.45 0 C295.45 149.66, 295.45 299.33, 295.45 415.56 M295.45 415.56 C218.11 415.56, 140.77 415.56, 0 415.56 M0 415.56 C0 304.05, 0 192.53, 0 0" stroke="#1e1e1e" stroke-width="2.5" fill="none" stroke-dasharray="8 10"></path></g><g stroke-linecap="round" transform="translate(870 370) rotate(0 230 290)"><path d="M0 0 L460 0 L460 580 L0 580" stroke="none" stroke-width="0" fill="#ffd8a8"></path><path d="M0 0 C147.78 0, 295.56 0, 460 0 M460 0 C460 188.25, 460 376.5, 460 580 M460 580 C289.8 580, 119.59 580, 0 580 M0 580 C0 392.94, 0 205.89, 0 0" stroke="#1e1e1e" stroke-width="2.5" fill="none" stroke-dasharray="8 10"></path></g><g stroke-linecap="round" transform="translate(90 590) rotate(0 90 50)"><path d="M0 0 L180 0 L180 100 L0 100" stroke="none" stroke-width="0" fill="#b2f2bb"></path><path d="M0 0 C57.44 0, 114.89 0, 180 0 M0 0 C43.9 0, 87.79 0, 180 0 M180 0 C180 24.64, 180 49.28, 180 100 M180 0 C180 34.79, 180 69.59, 180 100 M180 100 C141.7 100, 103.39 100, 0 100 M180 100 C127.74 100, 75.48 100, 0 100 M0 100 C0 74.56, 0 49.12, 0 0 M0 100 C0 70.32, 0 40.64, 0 0" stroke="#1e1e1e" stroke-width="2" fill="none"></path></g><g transform="translate(121.40625 604) rotate(0 58.59375 36)"><text x="58.59375" y="19.3125" font-family="Cascadia, Segoe UI Emoji" font-size="20px" fill="#1e1e1e" text-anchor="middle" style="white-space: pre;" direction="ltr" dominant-baseline="alphabetic">Ksctl</text><text x="58.59375" y="43.3125" font-family="Cascadia, Segoe UI Emoji" font-size="20px" fill="#1e1e1e" text-anchor="middle" style="white-space: pre;" direction="ltr" dominant-baseline="alphabetic">cluster-</text><text x="58.59375" y="67.3125" font-family="Cascadia, Segoe UI Emoji" font-size="20px" fill="#1e1e1e" text-anchor="middle" style="white-space: pre;" direction="ltr" dominant-baseline="alphabetic">Autoscaler</text></g><g stroke-linecap="round" transform="translate(190 710) rotate(0 90 50)"><path d="M0 0 L180 0 L180 100 L0 100" stroke="none" stroke-width="0" fill="#b2f2bb"></path><path d="M0 0 C38.69 0, 77.37 0, 180 0 M0 0 C63.61 0, 127.23 0, 180 0 M180 0 C180 21.35, 180 42.69, 180 100 M180 0 C180 23.64, 180 47.28, 180 100 M180 100 C126.43 100, 72.85 100, 0 100 M180 100 C131.86 100, 83.71 100, 0 100 M0 100 C0 70.9, 0 41.81, 0 0 M0 100 C0 71.51, 0 43.02, 0 0" stroke="#1e1e1e" stroke-width="2" fill="none"></path></g><g transform="translate(262.421875 748) rotate(0 17.578125 12)"><text x="17.578125" y="19.3125" font-family="Cascadia, Segoe UI Emoji" font-size="20px" fill="#1e1e1e" text-anchor="middle" style="white-space: pre;" direction="ltr" dominant-baseline="alphabetic">...</text></g><g stroke-linecap="round" transform="translate(90 470) rotate(0 70 50)"><path d="M0 0 L140 0 L140 100 L0 100" stroke="none" stroke-width="0" fill="#b2f2bb"></path><path d="M0 0 C43.95 0, 87.9 0, 140 0 M0 0 C52.17 0, 104.34 0, 140 0 M140 0 C140 37.25, 140 74.49, 140 100 M140 0 C140 32.4, 140 64.79, 140 100 M140 100 C85.97 100, 31.94 100, 0 100 M140 100 C95.45 100, 50.91 100, 0 100 M0 100 C0 73.87, 0 47.74, 0 0 M0 100 C0 70.08, 0 40.17, 0 0" stroke="#1e1e1e" stroke-width="2" fill="none"></path></g><g transform="translate(95.546875 496) rotate(0 64.453125 24)"><text x="64.453125" y="19.3125" font-family="Cascadia, Segoe UI Emoji" font-size="20px" fill="#1e1e1e" text-anchor="middle" style="white-space: pre;" direction="ltr" dominant-baseline="alphabetic">Ksctl</text><text x="64.453125" y="43.3125" font-family="Cascadia, Segoe UI Emoji" font-size="20px" fill="#1e1e1e" text-anchor="middle" style="white-space: pre;" direction="ltr" dominant-baseline="alphabetic">application</text></g><g stroke-linecap="round" transform="translate(290 430) rotate(0 80 50)"><path d="M0 0 L160 0 L160 100 L0 100" stroke="none" stroke-width="0" fill="#b2f2bb"></path><path d="M0 0 C43.48 0, 86.96 0, 160 0 M0 0 C39.52 0, 79.05 0, 160 0 M160 0 C160 24.21, 160 48.42, 160 100 M160 0 C160 25.2, 160 50.4, 160 100 M160 100 C109.93 100, 59.87 100, 0 100 M160 100 C99.79 100, 39.57 100, 0 100 M0 100 C0 60.26, 0 20.52, 0 0 M0 100 C0 74.25, 0 48.5, 0 0" stroke="#1e1e1e" stroke-width="2" fill="none"></path></g><g transform="translate(299.6875 456) rotate(0 70.3125 24)"><text x="70.3125" y="19.3125" font-family="Cascadia, Segoe UI Emoji" font-size="20px" fill="#1e1e1e" text-anchor="middle" style="white-space: pre;" direction="ltr" dominant-baseline="alphabetic">Ksctl</text><text x="70.3125" y="43.3125" font-family="Cascadia, Segoe UI Emoji" font-size="20px" fill="#1e1e1e" text-anchor="middle" style="white-space: pre;" direction="ltr" dominant-baseline="alphabetic">loadbalancer</text></g><g stroke-linecap="round" transform="translate(290 570) rotate(0 80 50)"><path d="M0 0 L160 0 L160 100 L0 100" stroke="none" stroke-width="0" fill="#b2f2bb"></path><path d="M0 0 C53.07 0, 106.13 0, 160 0 M0 0 C54.08 0, 108.17 0, 160 0 M160 0 C160 33.62, 160 67.24, 160 100 M160 0 C160 37.02, 160 74.03, 160 100 M160 100 C126.68 100, 93.36 100, 0 100 M160 100 C110.53 100, 61.07 100, 0 100 M0 100 C0 76, 0 51.99, 0 0 M0 100 C0 77.54, 0 55.09, 0 0" stroke="#1e1e1e" stroke-width="2" fill="none"></path></g><g transform="translate(328.984375 596) rotate(0 41.015625 24)"><text x="41.015625" y="19.3125" font-family="Cascadia, Segoe UI Emoji" font-size="20px" fill="#1e1e1e" text-anchor="middle" style="white-space: pre;" direction="ltr" dominant-baseline="alphabetic">Ksctl</text><text x="41.015625" y="43.3125" font-family="Cascadia, Segoe UI Emoji" font-size="20px" fill="#1e1e1e" text-anchor="middle" style="white-space: pre;" direction="ltr" dominant-baseline="alphabetic">storage</text></g><g stroke-linecap="round" transform="translate(596.1387907883218 350) rotate(0 96.93060460583911 310)"><path d="M0 0 L193.86 0 L193.86 620 L0 620" stroke="none" stroke-width="0" fill="#ffec99"></path><path d="M0 0 C52.63 0, 105.25 0, 193.86 0 M0 0 C65.45 0, 130.89 0, 193.86 0 M193.86 0 C193.86 131.43, 193.86 262.86, 193.86 620 M193.86 0 C193.86 159.15, 193.86 318.31, 193.86 620 M193.86 620 C148.9 620, 103.95 620, 0 620 M193.86 620 C149.24 620, 104.62 620, 0 620 M0 620 C0 400.07, 0 180.15, 0 0 M0 620 C0 436.35, 0 252.7, 0 0" stroke="#1e1e1e" stroke-width="2" fill="none"></path></g><g transform="translate(602.8350203941609 626.3999999999996) rotate(0 90.234375 33.600000000000364)"><text x="90.234375" y="27.0375" font-family="Cascadia, Segoe UI Emoji" font-size="28px" fill="#1e1e1e" text-anchor="middle" style="white-space: pre;" direction="ltr" dominant-baseline="alphabetic">controller-</text><text x="90.234375" y="60.6375" font-family="Cascadia, Segoe UI Emoji" font-size="28px" fill="#1e1e1e" text-anchor="middle" style="white-space: pre;" direction="ltr" dominant-baseline="alphabetic">runtime</text></g><g transform="translate(1790 790) rotate(0 90.234375 16.800000000000182)"><text x="90.234375" y="27.0375" font-family="Cascadia, Segoe UI Emoji" font-size="28px" fill="#1e1e1e" text-anchor="middle" style="white-space: pre;" direction="ltr" dominant-baseline="alphabetic">Ksctl agent</text></g><g stroke-linecap="round" transform="translate(1770 410) rotate(0 120.54792785644531 30.246551513671875)"><path d="M0 0 L241.1 0 L241.1 60.49 L0 60.49" stroke="none" stroke-width="0" fill="#ffc9c9"></path><path d="M0 0 C62.83 0, 125.66 0, 241.1 0 M241.1 0 C241.1 16.96, 241.1 33.93, 241.1 60.49 M241.1 60.49 C176.6 60.49, 112.1 60.49, 0 60.49 M0 60.49 C0 41.65, 0 22.81, 0 0" stroke="#1e1e1e" stroke-width="2.5" fill="none" stroke-dasharray="1.5 8"></path></g><g transform="translate(1849.5323028564453 428.2465515136719) rotate(0 41.015625 12)"><text x="41.015625" y="19.3125" font-family="Cascadia, Segoe UI Emoji" font-size="20px" fill="#1e1e1e" text-anchor="middle" style="white-space: pre;" direction="ltr" dominant-baseline="alphabetic">Scale()</text></g><g stroke-linecap="round" transform="translate(1770 490) rotate(0 120.54792785644531 30.246551513671875)"><path d="M0 0 L241.1 0 L241.1 60.49 L0 60.49" stroke="none" stroke-width="0" fill="#ffc9c9"></path><path d="M0 0 C59.8 0, 119.59 0, 241.1 0 M241.1 0 C241.1 14.78, 241.1 29.56, 241.1 60.49 M241.1 60.49 C149.3 60.49, 57.5 60.49, 0 60.49 M0 60.49 C0 42.11, 0 23.73, 0 0" stroke="#1e1e1e" stroke-width="2.5" fill="none" stroke-dasharray="1.5 8"></path></g><g transform="translate(1814.3760528564453 508.2465515136719) rotate(0 76.171875 12)"><text x="76.171875" y="19.3125" font-family="Cascadia, Segoe UI Emoji" font-size="20px" fill="#1e1e1e" text-anchor="middle" style="white-space: pre;" direction="ltr" dominant-baseline="alphabetic">Application()</text></g><g stroke-linecap="round" transform="translate(1770 570) rotate(0 120.54792785644531 30.246551513671875)"><path d="M0 0 L241.1 0 L241.1 60.49 L0 60.49" stroke="none" stroke-width="0" fill="#ffc9c9"></path><path d="M0 0 C89.42 0, 178.84 0, 241.1 0 M241.1 0 C241.1 20.35, 241.1 40.71, 241.1 60.49 M241.1 60.49 C178.13 60.49, 115.17 60.49, 0 60.49 M0 60.49 C0 39.77, 0 19.04, 0 0" stroke="#1e1e1e" stroke-width="2.5" fill="none" stroke-dasharray="1.5 8"></path></g><g transform="translate(1837.8135528564453 588.2465515136719) rotate(0 52.734375 12)"><text x="52.734375" y="19.3125" font-family="Cascadia, Segoe UI Emoji" font-size="20px" fill="#1e1e1e" text-anchor="middle" style="white-space: pre;" direction="ltr" dominant-baseline="alphabetic">Storage()</text></g><g stroke-linecap="round" transform="translate(1770 650) rotate(0 120.54792785644531 30.246551513671875)"><path d="M0 0 L241.1 0 L241.1 60.49 L0 60.49" stroke="none" stroke-width="0" fill="#ffc9c9"></path><path d="M0 0 C69.48 0, 138.96 0, 241.1 0 M241.1 0 C241.1 22.2, 241.1 44.41, 241.1 60.49 M241.1 60.49 C191.21 60.49, 141.32 60.49, 0 60.49 M0 60.49 C0 44.03, 0 27.57, 0 0" stroke="#1e1e1e" stroke-width="2.5" fill="none" stroke-dasharray="1.5 8"></path></g><g transform="translate(1872.9698028564453 668.2465515136719) rotate(0 17.578125 12)"><text x="17.578125" y="19.3125" font-family="Cascadia, Segoe UI Emoji" font-size="20px" fill="#1e1e1e" text-anchor="middle" style="white-space: pre;" direction="ltr" dominant-baseline="alphabetic">...</text></g><g stroke-linecap="round" transform="translate(1070 650) rotate(0 74.08216857910156 42.5)"><path d="M0 0 L148.16 0 L148.16 85 L0 85" stroke="none" stroke-width="0" fill="#ffc9c9"></path><path d="M0 0 C55.37 0, 110.73 0, 148.16 0 M0 0 C57.87 0, 115.74 0, 148.16 0 M148.16 0 C148.16 19.86, 148.16 39.73, 148.16 85 M148.16 0 C148.16 20.31, 148.16 40.62, 148.16 85 M148.16 85 C100.6 85, 53.05 85, 0 85 M148.16 85 C92.14 85, 36.12 85, 0 85 M0 85 C0 56.08, 0 27.15, 0 0 M0 85 C0 62.46, 0 39.92, 0 0" stroke="#1e1e1e" stroke-width="2" fill="none"></path></g><g transform="translate(1085.4884185791016 656.5) rotate(0 58.59375 36)"><text x="58.59375" y="19.3125" font-family="Cascadia, Segoe UI Emoji" font-size="20px" fill="#1e1e1e" text-anchor="middle" style="white-space: pre;" direction="ltr" dominant-baseline="alphabetic">Controller</text><text x="58.59375" y="43.3125" font-family="Cascadia, Segoe UI Emoji" font-size="20px" fill="#1e1e1e" text-anchor="middle" style="white-space: pre;" direction="ltr" dominant-baseline="alphabetic">Cluster </text><text x="58.59375" y="67.3125" font-family="Cascadia, Segoe UI Emoji" font-size="20px" fill="#1e1e1e" text-anchor="middle" style="white-space: pre;" direction="ltr" dominant-baseline="alphabetic">autoscaler</text></g><g stroke-linecap="round" transform="translate(1030 770) rotate(0 74.08216857910156 42.5)"><path d="M0 0 L148.16 0 L148.16 85 L0 85" stroke="none" stroke-width="0" fill="#ffc9c9"></path><path d="M0 0 C56.95 0, 113.89 0, 148.16 0 M0 0 C43.68 0, 87.35 0, 148.16 0 M148.16 0 C148.16 26.65, 148.16 53.3, 148.16 85 M148.16 0 C148.16 20.19, 148.16 40.38, 148.16 85 M148.16 85 C104.01 85, 59.86 85, 0 85 M148.16 85 C91.87 85, 35.57 85, 0 85 M0 85 C0 66.46, 0 47.91, 0 0 M0 85 C0 58.03, 0 31.05, 0 0" stroke="#1e1e1e" stroke-width="2" fill="none"></path></g><g transform="translate(1086.5040435791016 800.5) rotate(0 17.578125 12)"><text x="17.578125" y="19.3125" font-family="Cascadia, Segoe UI Emoji" font-size="20px" fill="#1e1e1e" text-anchor="middle" style="white-space: pre;" direction="ltr" dominant-baseline="alphabetic">...</text></g><g stroke-linecap="round" transform="translate(890 570) rotate(0 80 50)"><path d="M0 0 L160 0 L160 100 L0 100" stroke="none" stroke-width="0" fill="#ffc9c9"></path><path d="M0 0 C35.94 0, 71.89 0, 160 0 M0 0 C48.27 0, 96.54 0, 160 0 M160 0 C160 35.43, 160 70.86, 160 100 M160 0 C160 35.21, 160 70.41, 160 100 M160 100 C103.58 100, 47.15 100, 0 100 M160 100 C123.83 100, 87.66 100, 0 100 M0 100 C0 61.15, 0 22.29, 0 0 M0 100 C0 70.84, 0 41.67, 0 0" stroke="#1e1e1e" stroke-width="2" fill="none"></path></g><g transform="translate(905.546875 596) rotate(0 64.453125 24)"><text x="64.453125" y="19.3125" font-family="Cascadia, Segoe UI Emoji" font-size="20px" fill="#1e1e1e" text-anchor="middle" style="white-space: pre;" direction="ltr" dominant-baseline="alphabetic">Controller</text><text x="64.453125" y="43.3125" font-family="Cascadia, Segoe UI Emoji" font-size="20px" fill="#1e1e1e" text-anchor="middle" style="white-space: pre;" direction="ltr" dominant-baseline="alphabetic">application</text></g><g stroke-linecap="round" transform="translate(1130 490) rotate(0 90 40)"><path d="M0 0 L180 0 L180 80 L0 80" stroke="none" stroke-width="0" fill="#ffc9c9"></path><path d="M0 0 C69.23 0, 138.45 0, 180 0 M0 0 C40.44 0, 80.88 0, 180 0 M180 0 C180 18.93, 180 37.86, 180 80 M180 0 C180 26.15, 180 52.31, 180 80 M180 80 C126.95 80, 73.9 80, 0 80 M180 80 C113.64 80, 47.28 80, 0 80 M0 80 C0 50.29, 0 20.58, 0 0 M0 80 C0 50.08, 0 20.15, 0 0" stroke="#1e1e1e" stroke-width="2" fill="none"></path></g><g transform="translate(1161.40625 506) rotate(0 58.59375 24)"><text x="58.59375" y="19.3125" font-family="Cascadia, Segoe UI Emoji" font-size="20px" fill="#1e1e1e" text-anchor="middle" style="white-space: pre;" direction="ltr" dominant-baseline="alphabetic">Controller</text><text x="58.59375" y="43.3125" font-family="Cascadia, Segoe UI Emoji" font-size="20px" fill="#1e1e1e" text-anchor="middle" style="white-space: pre;" direction="ltr" dominant-baseline="alphabetic">storage</text></g><g stroke-linecap="round" transform="translate(930 390) rotate(0 80 40)"><path d="M0 0 L160 0 L160 80 L0 80" stroke="none" stroke-width="0" fill="#ffc9c9"></path><path d="M0 0 C52 0, 104 0, 160 0 M0 0 C42.96 0, 85.93 0, 160 0 M160 0 C160 21.64, 160 43.29, 160 80 M160 0 C160 27.62, 160 55.24, 160 80 M160 80 C115.15 80, 70.29 80, 0 80 M160 80 C110.61 80, 61.23 80, 0 80 M0 80 C0 58.52, 0 37.04, 0 0 M0 80 C0 59.49, 0 38.98, 0 0" stroke="#1e1e1e" stroke-width="2" fill="none"></path></g><g transform="translate(951.40625 406) rotate(0 58.59375 24)"><text x="58.59375" y="19.3125" font-family="Cascadia, Segoe UI Emoji" font-size="20px" fill="#1e1e1e" text-anchor="middle" style="white-space: pre;" direction="ltr" dominant-baseline="alphabetic">Controller</text><text x="58.59375" y="43.3125" font-family="Cascadia, Segoe UI Emoji" font-size="20px" fill="#1e1e1e" text-anchor="middle" style="white-space: pre;" direction="ltr" dominant-baseline="alphabetic">services</text></g><g transform="translate(1750 370) rotate(0 87.890625 12)"><text x="87.890625" y="19.3125" font-family="Cascadia, Segoe UI Emoji" font-size="20px" fill="#1e1e1e" text-anchor="middle" style="white-space: pre;" direction="ltr" dominant-baseline="alphabetic">Functionalities</text></g><g transform="translate(630 190) rotate(0 90.234375 16.800000000000182)"><text x="90.234375" y="27.0375" font-family="Cascadia, Segoe UI Emoji" font-size="28px" fill="#1e1e1e" text-anchor="middle" style="white-space: pre;" direction="ltr" dominant-baseline="alphabetic">K8s cluster</text></g><g transform="translate(170 190) rotate(0 114.84375 16.800000000000182)"><text x="114.84375" y="27.0375" font-family="Cascadia, Segoe UI Emoji" font-size="28px" fill="#1e1e1e" text-anchor="middle" style="white-space: pre;" direction="ltr" dominant-baseline="alphabetic">Event producer</text></g><g transform="translate(990 190) rotate(0 114.84375 16.800000000000182)"><text x="114.84375" y="27.0375" font-family="Cascadia, Segoe UI Emoji" font-size="28px" fill="#1e1e1e" text-anchor="middle" style="white-space: pre;" direction="ltr" dominant-baseline="alphabetic">Event consumer</text></g><g stroke-linecap="round"><g transform="translate(550 250) rotate(0 0 370)"><path d="M0 0 C0 217.61, 0 435.22, 0 740" stroke="#1e1e1e" stroke-width="2.5" fill="none" stroke-dasharray="1.5 8"></path></g></g><mask></mask><g stroke-linecap="round"><g transform="translate(830 250) rotate(0 0 370)"><path d="M0 0 C0 287.12, 0 574.24, 0 740" stroke="#1e1e1e" stroke-width="2.5" fill="none" stroke-dasharray="1.5 8"></path></g></g><mask></mask><g stroke-linecap="round"><g transform="translate(1350 250) rotate(0 0 370)"><path d="M0 0 C0 184.52, 0 369.04, 0 740" stroke="#1e1e1e" stroke-width="2.5" fill="none" stroke-dasharray="1.5 8"></path></g></g><mask></mask><g transform="translate(1470 210) rotate(0 164.0625 16.800000000000182)"><text x="164.0625" y="27.0375" font-family="Cascadia, Segoe UI Emoji" font-size="28px" fill="#1e1e1e" text-anchor="middle" style="white-space: pre;" direction="ltr" dominant-baseline="alphabetic">ksctl specific logic</text></g><g transform="translate(610 30) rotate(0 316.40625 21.600000000000364)"><text x="316.40625" y="34.762499999999996" font-family="Cascadia, Segoe UI Emoji" font-size="36px" fill="#1e1e1e" text-anchor="middle" style="white-space: pre;" direction="ltr" dominant-baseline="alphabetic">Ksctl 2.0 [event driven model]</text></g><g stroke-linecap="round"><g transform="translate(791 650) rotate(0 39.5 0)"><path d="M0 0 C13.17 0, 65.83 0, 79 0 M0 0 C13.17 0, 65.83 0, 79 0" stroke="#1e1e1e" stroke-width="4" fill="none"></path></g><g transform="translate(791 650) rotate(0 39.5 0)"><path d="M79 0 L65.41 6.34 L65.41 -6.34 L79 0" stroke="none" stroke-width="0" fill="#1e1e1e" fill-rule="evenodd"></path><path d="M79 0 C73.82 2.42, 68.63 4.83, 65.41 6.34 M79 0 C74.66 2.02, 70.32 4.05, 65.41 6.34 M65.41 6.34 C65.41 1.42, 65.41 -3.51, 65.41 -6.34 M65.41 6.34 C65.41 3.17, 65.41 0.01, 65.41 -6.34 M65.41 -6.34 C69.3 -4.52, 73.19 -2.71, 79 0 M65.41 -6.34 C70.14 -4.13, 74.88 -1.92, 79 0 M79 0 C79 0, 79 0, 79 0 M79 0 C79 0, 79 0, 79 0" stroke="#1e1e1e" stroke-width="4" fill="none"></path></g></g><mask></mask><g transform="translate(1030 890) rotate(0 90.234375 16.800000000000182)"><text x="0" y="27.0375" font-family="Cascadia, Segoe UI Emoji" font-size="28px" fill="#1e1e1e" text-anchor="start" style="white-space: pre;" direction="ltr" dominant-baseline="alphabetic">Controllers</text></g><g stroke-linecap="round"><g transform="translate(491 650) rotate(0 49.5 0)"><path d="M0 0 C36.66 0, 73.32 0, 99 0 M0 0 C32.41 0, 64.83 0, 99 0" stroke="#1e1e1e" stroke-width="4" fill="none"></path></g><g transform="translate(491 650) rotate(0 49.5 0)"><path d="M99 0 L85.41 6.34 L85.41 -6.34 L99 0" stroke="none" stroke-width="0" fill="#1e1e1e" fill-rule="evenodd"></path><path d="M99 0 C93.97 2.35, 88.93 4.7, 85.41 6.34 M99 0 C94.55 2.08, 90.1 4.15, 85.41 6.34 M85.41 6.34 C85.41 3.71, 85.41 1.08, 85.41 -6.34 M85.41 6.34 C85.41 2.36, 85.41 -1.63, 85.41 -6.34 M85.41 -6.34 C90.61 -3.91, 95.82 -1.48, 99 0 M85.41 -6.34 C90.16 -4.12, 94.91 -1.91, 99 0 M99 0 C99 0, 99 0, 99 0 M99 0 C99 0, 99 0, 99 0" stroke="#1e1e1e" stroke-width="4" fill="none"></path></g></g><mask></mask><g transform="translate(170 850) rotate(0 114.84375 33.600000000000364)"><text x="0" y="27.0375" font-family="Cascadia, Segoe UI Emoji" font-size="28px" fill="#1e1e1e" text-anchor="start" style="white-space: pre;" direction="ltr" dominant-baseline="alphabetic">CRDs or events</text><text x="0" y="60.6375" font-family="Cascadia, Segoe UI Emoji" font-size="28px" fill="#1e1e1e" text-anchor="start" style="white-space: pre;" direction="ltr" dominant-baseline="alphabetic">inside cluster</text></g><g mask="url(#mask-oHcnE16lz-aj7kC5VgH2o)" stroke-linecap="round"><g transform="translate(1331 632.880714070734) rotate(0 189.5 -21.32105874309491)"><path d="M0 0 C101.35 -11.4, 202.71 -22.81, 379 -42.64 M0 0 C95.4 -10.73, 190.8 -21.47, 379 -42.64" stroke="#1e1e1e" stroke-width="4" fill="none"></path></g><g transform="translate(1331 632.880714070734) rotate(0 189.5 -21.32105874309491)"><path d="M379 -42.64 L366.2 -34.82 L364.78 -47.42 L379 -42.64" stroke="none" stroke-width="0" fill="#1e1e1e" fill-rule="evenodd"></path><path d="M379 -42.64 C375.58 -40.55, 372.15 -38.46, 366.2 -34.82 M379 -42.64 C375.78 -40.67, 372.56 -38.71, 366.2 -34.82 M366.2 -34.82 C365.89 -37.54, 365.59 -40.26, 364.78 -47.42 M366.2 -34.82 C365.66 -39.6, 365.12 -44.38, 364.78 -47.42 M364.78 -47.42 C369.86 -45.72, 374.93 -44.01, 379 -42.64 M364.78 -47.42 C369.41 -45.87, 374.03 -44.31, 379 -42.64 M379 -42.64 C379 -42.64, 379 -42.64, 379 -42.64 M379 -42.64 C379 -42.64, 379 -42.64, 379 -42.64" stroke="#1e1e1e" stroke-width="4" fill="none"></path></g></g><mask id="mask-oHcnE16lz-aj7kC5VgH2o"><rect x="0" y="0" fill="#fff" width="1810" height="775.5228315569238"></rect><rect x="1397.453125" y="577.9596553276388" fill="#000" width="246.09375" height="67.2" opacity="1"></rect></mask><g transform="translate(1397.453125 577.9596553276388) rotate(0 123.046875 33.600000000000364)"><text x="123.046875" y="27.0375" font-family="Cascadia, Segoe UI Emoji" font-size="28px" fill="#1971c2" text-anchor="middle" style="white-space: pre;" direction="ltr" dominant-baseline="alphabetic">ksctl specific </text><text x="123.046875" y="60.6375" font-family="Cascadia, Segoe UI Emoji" font-size="28px" fill="#1971c2" text-anchor="middle" style="white-space: pre;" direction="ltr" dominant-baseline="alphabetic">func()</text></g><g transform="translate(650 1110) rotate(0 360.9375 33.600000000000364)"><text x="0" y="27.0375" font-family="Cascadia, Segoe UI Emoji" font-size="28px" fill="#e03131" text-anchor="start" style="white-space: pre;" direction="ltr" dominant-baseline="alphabetic">NOTE: Also Not everthing requires Ksct agent</text><text x="0" y="60.6375" font-family="Cascadia, Segoe UI Emoji" font-size="28px" fill="#e03131" text-anchor="start" style="white-space: pre;" direction="ltr" dominant-baseline="alphabetic">controller will have logic of its own</text></g><g mask="url(#mask-DsJBnhEdJ9G_-bSqFcTjk)" stroke-linecap="round"><g transform="translate(1331 704.9066300558115) rotate(0 149.5 94.8122736886362)"><path d="M0 0 C49.83 31.6, 249.17 158.02, 299 189.62 M0 0 C49.83 31.6, 249.17 158.02, 299 189.62" stroke="#1e1e1e" stroke-width="4" fill="none"></path></g><g transform="translate(1331 704.9066300558115) rotate(0 149.5 94.8122736886362)"><path d="M299 189.62 L284.12 187.7 L290.91 176.99 L299 189.62" stroke="none" stroke-width="0" fill="#1e1e1e" fill-rule="evenodd"></path><path d="M299 189.62 C293.88 188.96, 288.77 188.3, 284.12 187.7 M299 189.62 C294.6 189.05, 290.2 188.48, 284.12 187.7 M284.12 187.7 C286.57 183.84, 289.01 179.99, 290.91 176.99 M284.12 187.7 C285.65 185.29, 287.18 182.88, 290.91 176.99 M290.91 176.99 C292.66 179.71, 294.4 182.43, 299 189.62 M290.91 176.99 C293.23 180.6, 295.54 184.21, 299 189.62 M299 189.62 C299 189.62, 299 189.62, 299 189.62 M299 189.62 C299 189.62, 299 189.62, 299 189.62" stroke="#1e1e1e" stroke-width="4" fill="none"></path></g></g><mask id="mask-DsJBnhEdJ9G_-bSqFcTjk"><rect x="0" y="0" fill="#fff" width="1730" height="994.5311774330839"></rect><rect x="1349.25" y="732.518903744447" fill="#000" width="262.5" height="134.4" opacity="1"></rect></mask><g transform="translate(1349.25 732.518903744447) rotate(0 131.25 67.20000000000073)"><text x="131.25" y="27.0375" font-family="Cascadia, Segoe UI Emoji" font-size="28px" fill="#1971c2" text-anchor="middle" style="white-space: pre;" direction="ltr" dominant-baseline="alphabetic">Direct </text><text x="131.25" y="60.6375" font-family="Cascadia, Segoe UI Emoji" font-size="28px" fill="#1971c2" text-anchor="middle" style="white-space: pre;" direction="ltr" dominant-baseline="alphabetic">Modification of </text><text x="131.25" y="94.23750000000001" font-family="Cascadia, Segoe UI Emoji" font-size="28px" fill="#1971c2" text-anchor="middle" style="white-space: pre;" direction="ltr" dominant-baseline="alphabetic">cluster</text><text x="131.25" y="127.8375" font-family="Cascadia, Segoe UI Emoji" font-size="28px" fill="#1971c2" text-anchor="middle" style="white-space: pre;" direction="ltr" dominant-baseline="alphabetic">[InCluster]</text></g><g stroke-linecap="round"><g transform="translate(1738.1119254184923 891.0568533213282) rotate(0 1.8880745815076807 49.28613204596604)"><path d="M0 0 C-14.09 7.13, -24.06 10.66, -39.01 18.84 M0 0 C-14.87 6.33, -28.45 14.52, -39.01 18.84 M-39.01 18.84 C-41.28 34.52, -45.64 53.15, -48.11 63.48 M-39.01 18.84 C-42.5 34.2, -44.84 50.26, -48.11 63.48 M-48.11 63.48 C-42.03 72.47, -33.4 79.73, -19.95 98.62 M-48.11 63.48 C-43.4 69.4, -37.94 76.74, -19.95 98.62 M-19.95 98.62 C-8.78 100.41, 5.32 99.97, 23.86 99.63 M-19.95 98.62 C-3.75 98.88, 11.9 99.06, 23.86 99.63 M23.86 99.63 C33.62 90.01, 40.93 75.59, 51.89 63.63 M23.86 99.63 C33.86 86.46, 43.48 73.06, 51.89 63.63 M51.89 63.63 C50.49 54.52, 47.64 41.91, 44.65 22.69 M51.89 63.63 C49.3 49.54, 47.44 36.39, 44.65 22.69 M44.65 22.69 C31.27 13.81, 19.55 8.18, 0.83 -1.06 M44.65 22.69 C33.99 17.58, 23.17 10.17, 0.83 -1.06" stroke="#aaa" stroke-width="4" fill="none"></path></g></g><mask></mask><g stroke-linecap="round"><g transform="translate(1739.196082293579 890.2036500636368) rotate(0 0.44261369338391887 49.6465026079195)" fill-rule="evenodd"><path d="M0.44 -0.99 L-37.73 17.4 L-47.52 65.14 L-20.87 100.43 L21.32 101.19 L50.13 64.67 L39.32 18.94 L-1.5 -0.47" stroke="none" stroke-width="0" fill="#228be6" fill-rule="evenodd"></path><path d="M0 0 C-8.95 3.81, -17.66 10.36, -39.54 19.03 M0 0 C-13.62 6.75, -26.67 12.86, -39.54 19.03 M-39.54 19.03 C-42.47 35.31, -44.96 49.48, -49.13 63.44 M-39.54 19.03 C-42.07 32.88, -45.92 45.96, -49.13 63.44 M-49.13 63.44 C-41.2 71.89, -35.46 81.95, -21.98 98.7 M-49.13 63.44 C-39.62 76.83, -27.88 92.42, -21.98 98.7 M-21.98 98.7 C-7.29 99.52, 10.66 98.54, 21.98 99.29 M-21.98 98.7 C-8.03 98.72, 7.48 99.68, 21.98 99.29 M21.98 99.29 C28.43 88.57, 37.4 80.22, 50.02 63.29 M21.98 99.29 C31.16 86.3, 41.88 74.26, 50.02 63.29 M50.02 63.29 C45.95 46.14, 42.93 26.35, 40.28 18.88 M50.02 63.29 C48.4 55.15, 46.36 46.34, 40.28 18.88 M40.28 18.88 C29.01 12.25, 12.79 6.91, 0 0 M40.28 18.88 C30.56 14.02, 20.86 11.06, 0 0 M0 0 C0 0, 0 0, 0 0 M0 0 C0 0, 0 0, 0 0" stroke="#fff" stroke-width="2" fill="none"></path></g></g><mask></mask><g stroke-linecap="round"><g transform="translate(1739.4501690388288 906.2591826627322) rotate(0 0.270491676571055 30.087029992408134)" fill-rule="evenodd"><path d="M1.81 -1.63 L-22.55 13.23 L-28.91 40.17 L-14.1 61.71 L13.55 61.55 L29.61 38.41 L23.12 10.97 L-1.34 0.12" stroke="none" stroke-width="0" fill="#fff" fill-rule="evenodd"></path><path d="M0 0 C-7.58 5.17, -16.99 7.18, -24.16 11.53 M0 0 C-4.66 2.74, -10.34 5.83, -24.16 11.53 M-24.16 11.53 C-24.67 18.22, -27.03 24.46, -30.02 38.45 M-24.16 11.53 C-26.13 19.27, -27.46 26.33, -30.02 38.45 M-30.02 38.45 C-26.97 42.96, -18.21 49.91, -13.43 59.82 M-30.02 38.45 C-26.93 43.62, -23.05 46.18, -13.43 59.82 M-13.43 59.82 C-1.62 59.62, 7.99 59.81, 13.43 60.17 M-13.43 59.82 C-5.1 60.57, 2.43 60.62, 13.43 60.17 M13.43 60.17 C21.39 51.43, 27.81 42.85, 30.57 38.36 M13.43 60.17 C18.78 54.06, 25.47 46.8, 30.57 38.36 M30.57 38.36 C29.05 25.95, 23.89 16.15, 24.61 11.44 M30.57 38.36 C28.82 31.36, 27.25 22.54, 24.61 11.44 M24.61 11.44 C18.04 9.67, 12.62 6.33, 0 0 M24.61 11.44 C14.24 7.32, 6.42 1.66, 0 0 M0 0 C0 0, 0 0, 0 0 M0 0 C0 0, 0 0, 0 0" stroke="#fff" stroke-width="2" fill="none"></path></g></g><mask></mask><g stroke-linecap="round" transform="translate(1726.876725360521 935.6748392189911) rotate(0 4.369531268619539 4.425985160978598)"><path d="M4.08 0.26 C5 0.13, 6.05 0.44, 6.83 0.91 C7.61 1.37, 8.5 2.13, 8.75 3.04 C9.01 3.96, 8.77 5.51, 8.38 6.4 C8 7.29, 7.28 8.02, 6.44 8.39 C5.6 8.76, 4.26 8.82, 3.32 8.62 C2.38 8.42, 1.31 7.97, 0.78 7.2 C0.25 6.42, 0.07 4.95, 0.15 3.97 C0.22 2.99, 0.62 1.98, 1.24 1.32 C1.85 0.66, 3.35 0.26, 3.84 0 C4.33 -0.25, 4.21 -0.23, 4.2 -0.21 M4.57 -0.37 C5.51 -0.13, 6.93 1.21, 7.67 1.91 C8.41 2.62, 8.93 3.03, 9.01 3.88 C9.1 4.73, 8.78 6.12, 8.19 7 C7.59 7.87, 6.44 8.89, 5.44 9.13 C4.44 9.37, 3.05 8.97, 2.19 8.46 C1.32 7.94, 0.63 6.94, 0.25 6.02 C-0.14 5.09, -0.43 3.74, -0.1 2.89 C0.22 2.04, 1.39 1.35, 2.22 0.92 C3.04 0.5, 4.3 0.48, 4.84 0.33 C5.38 0.18, 5.5 -0.07, 5.47 0.02" stroke="#228be6" stroke-width="2" fill="none"></path></g><g stroke-linecap="round"><g transform="translate(1731.257547407613 935.8103285606539) rotate(0 0.24839712638140554 -0.8693899423351468)"><path d="M-0.22 -0.27 C-0.16 -0.56, 0.38 -1.32, 0.55 -1.56 M0.31 0.36 C0.31 -0.05, 0.23 -1.81, 0.29 -2.1" stroke="#228be6" stroke-width="2" fill="none"></path></g></g><mask></mask><g stroke-linecap="round"><g transform="translate(1734.1705682533602 936.6006830536844) rotate(0 0.8693899423351468 -0.3274325756847247)"><path d="M0.05 0.18 C0.42 0.11, 1.69 -0.53, 2 -0.64 M-0.35 -0.04 C0.01 -0.02, 1.5 -0.01, 1.85 -0.18" stroke="#228be6" stroke-width="2" fill="none"></path></g></g><mask></mask><g stroke-linecap="round"><g transform="translate(1735.277064543604 940.0104981521963) rotate(0 1.1403686256603578 0.2258155694380548)"><path d="M0.26 0.01 C0.66 0.09, 2.13 0.57, 2.44 0.65 M-0.04 -0.28 C0.32 -0.32, 1.94 -0.07, 2.24 0.13" stroke="#228be6" stroke-width="2" fill="none"></path></g></g><mask></mask><g stroke-linecap="round"><g transform="translate(1734.5092916075164 943.3977316937617) rotate(0 0.5984112590099357 0.7339006006723139)"><path d="M0.16 0.2 C0.29 0.44, 0.82 1.25, 1.02 1.49 M-0.19 -0.01 C0.03 0.3, 1.49 1.78, 1.73 1.95" stroke="#228be6" stroke-width="2" fill="none"></path></g></g><mask></mask><g stroke-linecap="round"><g transform="translate(1731.144639622894 944.5945542117806) rotate(0 -0.13548934166283289 0.9710069485818167)"><path d="M-0.17 0.02 C-0.22 0.34, -0.07 1.79, -0.09 2.11 M0.38 -0.27 C0.3 -0.07, -0.12 1.14, -0.27 1.57" stroke="#228be6" stroke-width="2" fill="none"></path></g></g><mask></mask><g stroke-linecap="round"><g transform="translate(1728.5025974604732 943.0364267826608) rotate(0 -0.7677729360880221 0.8693899423351468)"><path d="M0.18 0.17 C-0.05 0.46, -1.25 1.5, -1.55 1.75 M-0.15 -0.05 C-0.41 0.29, -1.54 1.86, -1.84 2.21" stroke="#228be6" stroke-width="2" fill="none"></path></g></g><mask></mask><g stroke-linecap="round"><g transform="translate(1727.46384584106 939.9879165952516) rotate(0 -1.4790919798169853 0)"><path d="M-0.02 0.01 C-0.56 -0.03, -2.61 -0.08, -3.07 -0.05 M-0.45 -0.29 C-1.07 -0.29, -2.99 0.4, -3.4 0.37" stroke="#228be6" stroke-width="2" fill="none"></path></g></g><mask></mask><g stroke-linecap="round"><g transform="translate(1728.9768101562922 936.7135908384062) rotate(0 -0.8693899423351468 -0.2258155694380548)"><path d="M-0.11 -0.05 C-0.37 -0.11, -1.26 -0.24, -1.56 -0.31 M0.48 -0.39 C0.2 -0.55, -1.3 -0.91, -1.74 -0.85" stroke="#228be6" stroke-width="2" fill="none"></path></g></g><mask></mask><g stroke-linecap="round" transform="translate(1738.2489918844649 938.9422131996089) rotate(0 6.743288586676044 6.830411178235408)"><path d="M5.72 0.03 C7.09 -0.28, 9.38 -0.03, 10.55 0.7 C11.72 1.44, 12.27 3, 12.74 4.43 C13.21 5.85, 13.98 7.9, 13.4 9.24 C12.81 10.58, 10.67 11.75, 9.22 12.46 C7.78 13.16, 5.97 13.68, 4.71 13.46 C3.46 13.24, 2.55 12.25, 1.68 11.14 C0.82 10.03, -0.46 8.28, -0.47 6.81 C-0.47 5.35, 0.44 3.49, 1.65 2.35 C2.85 1.21, 5.87 0.33, 6.76 -0.04 C7.64 -0.42, 7 0.03, 6.95 0.1 M6.13 0.41 C7.58 0.16, 10.38 0.32, 11.5 1.23 C12.61 2.14, 12.67 4.33, 12.84 5.87 C13.01 7.4, 13.17 9.2, 12.53 10.44 C11.9 11.67, 10.48 12.8, 9.05 13.28 C7.62 13.75, 5.33 13.66, 3.96 13.3 C2.59 12.93, 1.35 12.25, 0.82 11.08 C0.3 9.9, 0.44 7.8, 0.79 6.25 C1.13 4.7, 1.94 2.77, 2.92 1.78 C3.89 0.79, 6.13 0.71, 6.61 0.32 C7.09 -0.08, 5.88 -0.65, 5.8 -0.6" stroke="#228be6" stroke-width="2" fill="none"></path></g><g stroke-linecap="round"><g transform="translate(1745.009704989453 939.1513074193517) rotate(0 0.3833394028602015 -1.341687910010478)"><path d="M-0.15 0.01 C-0.06 -0.49, 0.58 -2.45, 0.73 -2.89 M0.41 -0.29 C0.44 -0.76, 0.42 -2.22, 0.44 -2.54" stroke="#228be6" stroke-width="2" fill="none"></path></g></g><mask></mask><g stroke-linecap="round"><g transform="translate(1749.505230713904 940.3710237011783) rotate(0 1.341687910010478 -0.5053110310427655)"><path d="M-0.03 -0.21 C0.44 -0.37, 2.27 -0.78, 2.67 -0.97 M-0.48 0.46 C-0.04 0.36, 1.8 -0.23, 2.39 -0.49" stroke="#228be6" stroke-width="2" fill="none"></path></g></g><mask></mask><g stroke-linecap="round"><g transform="translate(1751.2128335084626 945.6332282313506) rotate(0 1.7598763494943341 0.34849036623654683)"><path d="M-0.01 0.04 C0.53 0.14, 2.67 0.19, 3.2 0.36 M-0.44 -0.24 C0.2 -0.1, 3.12 0.51, 3.83 0.64" stroke="#228be6" stroke-width="2" fill="none"></path></g></g><mask></mask><g stroke-linecap="round"><g transform="translate(1750.0279662632583 950.8605837248979) rotate(0 0.9234994705266217 1.1325936902685498)"><path d="M-0.32 -0.34 C-0.07 0.09, 1.17 2.23, 1.49 2.61 M0.16 0.25 C0.52 0.59, 1.75 1.85, 2.11 2.16" stroke="#228be6" stroke-width="2" fill="none"></path></g></g><mask></mask><g stroke-linecap="round"><g transform="translate(1744.8354598063343 952.7075826659511) rotate(0 -0.2090942197419281 1.4985085748166966)"><path d="M-0.35 0.34 C-0.41 0.84, -0.6 2.25, -0.67 2.64 M0.11 0.21 C0.19 0.77, 0.04 2.46, 0 2.91" stroke="#228be6" stroke-width="2" fill="none"></path></g></g><mask></mask><g stroke-linecap="round"><g transform="translate(1740.758122521368 950.3029991389176) rotate(0 -1.1848672452042592 1.341687910010478)"><path d="M-0.25 -0.36 C-0.64 -0.02, -2.37 1.83, -2.73 2.38 M0.27 0.23 C0.01 0.75, -1.63 2.32, -2.11 2.68" stroke="#228be6" stroke-width="2" fill="none"></path></g></g><mask></mask><g stroke-linecap="round"><g transform="translate(1739.15506683668 945.5983791947274) rotate(0 -2.2826118988486996 0)"><path d="M-0.36 -0.3 C-1.08 -0.2, -3.9 0.28, -4.57 0.27 M0.11 0.31 C-0.64 0.35, -4.08 -0.14, -4.85 -0.21" stroke="#228be6" stroke-width="2" fill="none"></path></g></g><mask></mask><g stroke-linecap="round"><g transform="translate(1741.4899522904652 940.5452688842979) rotate(0 -1.341687910010478 -0.34849036623654683)"><path d="M0 0.27 C-0.36 0.15, -2.09 -0.85, -2.49 -1.04 M-0.43 0.1 C-0.79 0.03, -2.33 -0.65, -2.67 -0.76" stroke="#228be6" stroke-width="2" fill="none"></path></g></g><mask></mask><g stroke-linecap="round" transform="translate(1742.1734105939631 923.941099029942) rotate(0 4.369531268619539 4.425985160978598)"><path d="M5.24 0.01 C6.17 0.05, 7.15 0.78, 7.74 1.45 C8.33 2.13, 8.75 3.1, 8.75 4.06 C8.75 5.02, 8.3 6.47, 7.75 7.22 C7.2 7.98, 6.34 8.38, 5.46 8.61 C4.58 8.84, 3.35 9.07, 2.48 8.6 C1.61 8.14, 0.57 6.79, 0.23 5.85 C-0.11 4.91, 0.1 3.84, 0.44 2.96 C0.78 2.08, 1.49 1.09, 2.26 0.55 C3.04 0.01, 4.64 -0.19, 5.11 -0.27 C5.57 -0.36, 5.04 -0.13, 5.07 0.05 M4.78 0.22 C5.52 0.15, 6.35 0.14, 6.97 0.76 C7.58 1.39, 8.3 2.87, 8.48 3.96 C8.66 5.06, 8.53 6.46, 8.05 7.32 C7.57 8.19, 6.47 8.96, 5.58 9.16 C4.69 9.36, 3.64 8.91, 2.7 8.52 C1.77 8.13, 0.43 7.73, 0 6.82 C-0.43 5.9, -0.23 4.09, 0.1 3.03 C0.43 1.98, 1.23 0.92, 1.98 0.48 C2.74 0.05, 4.22 0.58, 4.63 0.44 C5.04 0.31, 4.52 -0.38, 4.44 -0.34" stroke="#228be6" stroke-width="2" fill="none"></path></g><g stroke-linecap="round"><g transform="translate(1746.554232641054 924.0765883716049) rotate(0 0.24839712638140554 -0.8693899423351468)"><path d="M0.31 -0.16 C0.39 -0.35, 0.65 -1.24, 0.67 -1.48 M0.04 0.52 C0.07 0.26, 0.45 -1.52, 0.48 -1.98" stroke="#228be6" stroke-width="2" fill="none"></path></g></g><mask></mask><g stroke-linecap="round"><g transform="translate(1749.4672534868005 924.8669428646372) rotate(0 0.8693899423351468 -0.3274325756847247)"><path d="M0.18 0.25 C0.41 0.19, 1.45 -0.39, 1.7 -0.54 M-0.16 0.08 C-0.01 -0.08, 1.13 -1.05, 1.41 -1.1" stroke="#228be6" stroke-width="2" fill="none"></path></g></g><mask></mask><g stroke-linecap="round"><g transform="translate(1750.5737497770451 928.2767579631454) rotate(0 1.1403686256603578 0.2258155694380548)"><path d="M-0.04 0.12 C0.31 0.15, 1.91 0.42, 2.25 0.46 M-0.48 -0.13 C-0.2 -0.05, 1.42 0.78, 1.96 0.92" stroke="#228be6" stroke-width="2" fill="none"></path></g></g><mask></mask><g stroke-linecap="round"><g transform="translate(1749.8059768409576 931.6639915047108) rotate(0 0.5984112590099357 0.7339006006723139)"><path d="M-0.03 0.01 C0.14 0.23, 0.74 1.13, 0.95 1.41 M-0.47 -0.29 C-0.19 -0.03, 1.36 1.6, 1.62 1.83" stroke="#228be6" stroke-width="2" fill="none"></path></g></g><mask></mask><g stroke-linecap="round"><g transform="translate(1746.441324856336 932.8608140227316) rotate(0 -0.13548934166283289 0.9710069485818167)"><path d="M-0.25 -0.06 C-0.28 0.3, -0.18 1.79, -0.21 2.15 M0.27 -0.39 C0.2 -0.14, -0.29 1.32, -0.46 1.64" stroke="#228be6" stroke-width="2" fill="none"></path></g></g><mask></mask><g stroke-linecap="round"><g transform="translate(1743.7992826939144 931.3026865936117) rotate(0 -0.7677729360880221 0.8693899423351468)"><path d="M0.06 0.21 C-0.18 0.54, -1.48 1.69, -1.7 1.93 M-0.33 0.01 C-0.61 0.25, -1.89 1.08, -2.06 1.41" stroke="#228be6" stroke-width="2" fill="none"></path></g></g><mask></mask><g stroke-linecap="round"><g transform="translate(1742.7605310745012 928.2541764062025) rotate(0 -1.4790919798169853 0)"><path d="M-0.16 0.19 C-0.61 0.14, -2.15 -0.1, -2.66 -0.09 M0.4 -0.02 C-0.08 -0.03, -2.31 0.37, -2.79 0.31" stroke="#228be6" stroke-width="2" fill="none"></path></g></g><mask></mask><g stroke-linecap="round"><g transform="translate(1744.2734953897334 924.9798506493553) rotate(0 -0.8693899423351468 -0.2258155694380548)"><path d="M0.3 -0.09 C0 -0.16, -1.62 -0.19, -1.97 -0.22 M0.02 -0.44 C-0.15 -0.63, -0.94 -0.66, -1.29 -0.72" stroke="#228be6" stroke-width="2" fill="none"></path></g></g><mask></mask><g transform="translate(1728.6719826079843 965.1420817214366) rotate(0 11.561403568590777 10.484082528363615)"><text x="11.561403568590887" y="14.69449007175503" font-family="Virgil, Segoe UI Emoji" font-size="16.774532045382454px" fill="#fff" text-anchor="middle" style="white-space: pre;" direction="ltr" dominant-baseline="alphabetic">api</text></g><g transform="translate(1830 910) rotate(0 106.640625 33.600000000000364)"><text x="0" y="27.0375" font-family="Cascadia, Segoe UI Emoji" font-size="28px" fill="#1971c2" text-anchor="start" style="white-space: pre;" direction="ltr" dominant-baseline="alphabetic">K8s</text><text x="0" y="60.6375" font-family="Cascadia, Segoe UI Emoji" font-size="28px" fill="#1971c2" text-anchor="start" style="white-space: pre;" direction="ltr" dominant-baseline="alphabetic">kubeApiServer</text></g></svg>